<?xml version="1.0" encoding="UTF-8"?>
<svg version="1.1" xmlns="http://www.w3.org/2000/svg" width="188" height="51">
<path d="M0 0 C2.30859375 1.40234375 2.30859375 1.40234375 4 3 C4 3.66 4 4.32 4 5 C4.99 5 5.98 5 7 5 C10.00233171 10.00388618 10.55983509 13.30834327 10 19 C8.875 20.9375 8.875 20.9375 7 22 C3.8125 22.6875 3.8125 22.6875 1 23 C1 23.66 1 24.32 1 25 C1.94875 25.12375 2.8975 25.2475 3.875 25.375 C7 26 7 26 9 28 C9.40079552 30.99854429 9.28738338 32.52306588 7.71484375 35.1328125 C3.7642857 39.56091054 0.66592999 42.14990041 -5 44 C-5 44.99 -5 45.98 -5 47 C-7.475 47.495 -7.475 47.495 -10 48 C-10.33 46.68 -10.66 45.36 -11 44 C-11.66 44 -12.32 44 -13 44 C-13.33 43.34 -13.66 42.68 -14 42 C-14.99 43.98 -15.98 45.96 -17 48 C-19.31 47.34 -21.62 46.68 -24 46 C-24 45.34 -24 44.68 -24 44 C-24.62390625 43.78859375 -25.2478125 43.5771875 -25.890625 43.359375 C-28.87449038 41.43643953 -28.98635339 39.66095485 -29.75 36.25 C-30.11351563 34.71085937 -30.11351563 34.71085937 -30.484375 33.140625 C-31.78506973 25.21821165 -31.78506973 25.21821165 -29.1875 21.1875 C-27 19 -27 19 -24 18 C-24.66 17.01 -25.32 16.02 -26 15 C-26.3468602 11.18453778 -26.53366895 8.86721204 -24.5 5.5625 C-24.005 5.046875 -23.51 4.53125 -23 4 C-22.01 4.33 -21.02 4.66 -20 5 C-17.80961577 3.62831762 -17.80961577 3.62831762 -16 2 C-15.67 2.66 -15.34 3.32 -15 4 C-14.38125 3.34 -13.7625 2.68 -13.125 2 C-8.87010217 -0.72313461 -4.94567101 -0.8926333 0 0 Z M-15 8 C-13.68 8.33 -12.36 8.66 -11 9 C-10.34 7.68 -9.68 6.36 -9 5 C-11.76223278 5 -12.89281454 6.31425163 -15 8 Z M-8 5 C-7.319375 5.7425 -6.63875 6.485 -5.9375 7.25 C-5.298125 8.1575 -4.65875 9.065 -4 10 C-4.375 12.125 -4.375 12.125 -5 14 C-4.01 15.485 -4.01 15.485 -3 17 C-2.34 17 -1.68 17 -1 17 C0.74898845 12.97260793 0.74898845 12.97260793 0.375 8.75 C-1.25539982 6.67494569 -2.52924891 5.89845494 -5 5 C-5.99 5 -6.98 5 -8 5 Z M6 8 C7 10 7 10 7 10 Z M-21 11 C-20 13 -20 13 -20 13 Z M5 11 C4.67 11.99 4.34 12.98 4 14 C4.99 14.495 4.99 14.495 6 15 C5.67 13.68 5.34 12.36 5 11 Z M-20 14 C-19 16 -19 16 -19 16 Z M-10 19 C-10 19.66 -10 20.32 -10 21 C-10.94875 21.268125 -11.8975 21.53625 -12.875 21.8125 C-16.25267273 22.74986588 -16.25267273 22.74986588 -18 26 C-13.85463326 25.5289356 -11.0080208 25.0080208 -8 22 C-8 21.01 -8 20.02 -8 19 C-8.66 19 -9.32 19 -10 19 Z M-23 22 C-23.66 22.66 -24.32 23.32 -25 24 C-23.35 23.67 -21.7 23.34 -20 23 C-20.99 22.67 -21.98 22.34 -23 22 Z M-9 35 C-9.99 36.485 -9.99 36.485 -11 38 C-10.01 37.67 -9.02 37.34 -8 37 C-8.33 36.34 -8.66 35.68 -9 35 Z M-20.125 39 C-20.74375 39.66 -21.3625 40.32 -22 41 C-21.34 42.65 -20.68 44.3 -20 46 C-19.71125 45.38125 -19.4225 44.7625 -19.125 44.125 C-18 42 -18 42 -16 40 C-16 39.01 -16 38.02 -16 37 C-18.24362573 36.7715451 -18.24362573 36.7715451 -20.125 39 Z M-13 39 C-12 41 -12 41 -12 41 Z " fill="#FFFFFF" transform="translate(32,2)"/>
<path d="M0 0 C0.66 0 1.32 0 2 0 C2.40839111 0.83772949 2.81678223 1.67545898 3.23754883 2.53857422 C4.7574803 5.64663229 6.28456929 8.75095173 7.81665039 11.85302734 C8.47808387 13.19600162 9.13663735 14.54039834 9.79223633 15.88623047 C10.73544675 17.82120416 11.68891812 19.750815 12.64453125 21.6796875 C13.21534424 22.84226074 13.78615723 24.00483398 14.37426758 25.20263672 C15.85326969 28.2204369 15.85326969 28.2204369 19 30 C19 30.66 19 31.32 19 32 C15.04 32 11.08 32 7 32 C7 31.34 7 30.68 7 30 C7.66 29.67 8.32 29.34 9 29 C7.68 26.36 6.36 23.72 5 21 C1.37 21 -2.26 21 -6 21 C-8.2981424 24.8509288 -8.2981424 24.8509288 -8 29 C-6.68 29.33 -5.36 29.66 -4 30 C-4 30.66 -4 31.32 -4 32 C-8.29 32 -12.58 32 -17 32 C-17 31.34 -17 30.68 -17 30 C-16.23921143 29.59160889 -15.47842285 29.18321777 -14.69458008 28.76245117 C-11.26592873 26.51986405 -10.48629048 24.54483375 -8.88671875 20.80078125 C-8.36142578 19.59228516 -7.83613281 18.38378906 -7.29492188 17.13867188 C-6.75877686 15.86342319 -6.22297382 14.58803067 -5.6875 13.3125 C-5.1335836 12.02477796 -4.57825927 10.73766057 -4.02148438 9.45117188 C-2.66701818 6.30645472 -1.32724206 3.15628116 0 0 Z M-1 8 C-1.67154933 9.28913487 -2.33708859 10.58140204 -3 11.875 C-3.37125 12.59429688 -3.7425 13.31359375 -4.125 14.0546875 C-5.13673746 15.94848977 -5.13673746 15.94848977 -5 18 C-2.03 18 0.94 18 4 18 C2.68 14.7 1.36 11.4 0 8 C-0.33 8 -0.66 8 -1 8 Z " fill="#FFFFFF" transform="translate(61,4)"/>
<path d="M0 0 C0.33 5.94 0.66 11.88 1 18 C1.66 17.34 2.32 16.68 3 16 C8.74553571 15.36160714 8.74553571 15.36160714 11 16 C14.17102133 19.82513335 14.33461626 22.95766342 14.1875 27.8125 C14.16042969 28.97394531 14.13335937 30.13539062 14.10546875 31.33203125 C14.07066406 32.21246094 14.03585938 33.09289063 14 34 C14.66 34 15.32 34 16 34 C16 34.66 16 35.32 16 36 C12.7 36 9.4 36 6 36 C6 35.34 6 34.68 6 34 C6.99 33.505 6.99 33.505 8 33 C8 28.71 8 24.42 8 20 C5.69 20.33 3.38 20.66 1 21 C1 24.96 1 28.92 1 33 C1.66 33.33 2.32 33.66 3 34 C3 34.66 3 35.32 3 36 C-0.3 36 -3.6 36 -7 36 C-7 35.34 -7 34.68 -7 34 C-6.01 33.505 -6.01 33.505 -5 33 C-4.92590599 29.04907941 -4.87142594 25.09842706 -4.83520508 21.14697266 C-4.81267749 19.14080626 -4.7745643 17.13483474 -4.73632812 15.12890625 C-4.72666016 13.87207031 -4.71699219 12.61523438 -4.70703125 11.3203125 C-4.68346558 9.57645264 -4.68346558 9.57645264 -4.65942383 7.79736328 C-4.77181396 6.8742334 -4.8842041 5.95110352 -5 5 C-5.99 4.34 -6.98 3.68 -8 3 C-3.375 0 -3.375 0 0 0 Z " fill="#FFFFFF" transform="translate(104,0)"/>
<path d="M0 0 C0.33 -0.33 0.66 -0.66 1 -1 C6.73611111 -1.27314815 6.73611111 -1.27314815 9 -1 C12.15885717 2.15885717 11.4322943 6.40587417 11.56640625 10.67773438 C11.64574385 12.45593149 11.81605856 14.22956362 12 16 C12.66 16.33 13.32 16.66 14 17 C14 17.66 14 18.32 14 19 C10.7 19 7.4 19 4 19 C4 18.34 4 17.68 4 17 C4.66 17 5.32 17 6 17 C5.505 10.565 5.505 10.565 5 4 C1.25308553 2.60229416 1.25308553 2.60229416 -1 4 C-1.46954261 7.04581269 -1.46954261 7.04581269 -1.625 10.5625 C-1.69976562 11.76003906 -1.77453125 12.95757812 -1.8515625 14.19140625 C-1.90054688 15.11824219 -1.94953125 16.04507813 -2 17 C-1.01 17 -0.02 17 1 17 C1 17.66 1 18.32 1 19 C-2.63 19 -6.26 19 -10 19 C-9.67 18.34 -9.34 17.68 -9 17 C-8.34 17 -7.68 17 -7 17 C-7 12.38 -7 7.76 -7 3 C-8.32 2.67 -9.64 2.34 -11 2 C-6.92498788 -0.99633244 -4.87186476 -1.10724199 0 0 Z " fill="#FFFFFF" transform="translate(152,17)"/>
<path d="M0 0 C2.49118953 3.7367843 2.2065226 5.74451819 2.125 10.1875 C2.10695312 11.45980469 2.08890625 12.73210938 2.0703125 14.04296875 C2.04710937 15.01878906 2.02390625 15.99460937 2 17 C3.32 16.67 4.64 16.34 6 16 C6 16.66 6 17.32 6 18 C2.38692786 20.36239332 0.11871234 19.80583502 -4 19 C-4.66 19.33 -5.32 19.66 -6 20 C-9 20.1875 -9 20.1875 -12 20 C-14 18 -14 18 -14.1875 15.625 C-12.455565 11.79651211 -9.71849206 11.19310217 -5.93359375 9.69921875 C-5.29550781 9.46847656 -4.65742188 9.23773438 -4 9 C-4.33 6.69 -4.66 4.38 -5 2 C-7.7839183 3.39195915 -7.97898997 5.15575779 -9 8 C-10.32 7.67 -11.64 7.34 -13 7 C-12.51963048 2.43648961 -12.51963048 2.43648961 -10.4375 0.6875 C-6.77391403 -0.34581912 -3.81347122 -0.307538 0 0 Z M-8 13 C-7.67 14.32 -7.34 15.64 -7 17 C-5.68 16.67 -4.36 16.34 -3 16 C-3 14.35 -3 12.7 -3 11 C-4.84046388 11 -6.39629594 12.17228177 -8 13 Z " fill="#FFFFFF" transform="translate(182,16)"/>
<path d="M0 0 C2.0625 1.1875 2.0625 1.1875 3 3 C2.67 4.65 2.34 6.3 2 8 C-1.96 8 -5.92 8 -10 8 C-8.48134786 12.29888613 -8.48134786 12.29888613 -6 16 C-4.48071962 16.07179964 -2.95832518 16.08392007 -1.4375 16.0625 C-0.61121094 16.05347656 0.21507812 16.04445313 1.06640625 16.03515625 C1.70449219 16.02355469 2.34257812 16.01195313 3 16 C3 16.66 3 17.32 3 18 C-1.22154756 20.81436504 -5.03975968 20.68304949 -10 20 C-12.57637471 18.11484777 -13.59667428 16.80665143 -15 14 C-15.3751455 9.02932218 -15.15878799 5.94848498 -12 2 C-8.38949413 -0.80817123 -4.36340797 -0.34630222 0 0 Z M-8 2 C-8.33 3.32 -8.66 4.64 -9 6 C-7.02 6 -5.04 6 -3 6 C-3.33 4.68 -3.66 3.36 -4 2 C-5.32 2 -6.64 2 -8 2 Z " fill="#FFFFFF" transform="translate(137,16)"/>
<path d="M0 0 C0.66 0 1.32 0 2 0 C2.33 0.99 2.66 1.98 3 3 C4.98 3 6.96 3 9 3 C9 3.99 9 4.98 9 6 C6.69 6 4.38 6 2 6 C2.33 10.29 2.66 14.58 3 19 C5.31 19 7.62 19 10 19 C10 19.66 10 20.32 10 21 C5.93150591 23.71232939 3.83523216 23.30699887 -1 23 C-3.82709944 20.17290056 -3.41712326 17.29397824 -3.5625 13.5 C-3.60173595 8.60045716 -3.60173595 8.60045716 -5 4 C-4.360625 3.71125 -3.72125 3.4225 -3.0625 3.125 C-0.84793921 2.17176549 -0.84793921 2.17176549 0 0 Z " fill="#FFFFFF" transform="translate(86,13)"/>
<path d="M0 0 C2.475 0.495 2.475 0.495 5 1 C5 2.32 5 3.64 5 5 C4.01 5 3.02 5 2 5 C2 5.66 2 6.32 2 7 C1.34 7 0.68 7 0 7 C0 4.69 0 2.38 0 0 Z M2 2 C2.33 2.66 2.66 3.32 3 4 C3.33 3.34 3.66 2.68 4 2 C3.34 2 2.68 2 2 2 Z " fill="#FFFFFF" transform="translate(152,43)"/>
<path d="M0 0 C0 2.31 0 4.62 0 7 C-1.65 7 -3.3 7 -5 7 C-4.6875 4.625 -4.6875 4.625 -4 2 C-1 0 -1 0 0 0 Z M-4 4 C-3.34 4.66 -2.68 5.32 -2 6 C-2 5.34 -2 4.68 -2 4 C-2.66 4 -3.32 4 -4 4 Z " fill="#FFFFFF" transform="translate(120,41)"/>
<path d="M0 0 C1.65 0 3.3 0 5 0 C5 1.98 5 3.96 5 6 C4.34 6 3.68 6 3 6 C3 5.34 3 4.68 3 4 C2.34 4 1.68 4 1 4 C0.67 4.66 0.34 5.32 0 6 C0 4.02 0 2.04 0 0 Z M1 1 C1 1.66 1 2.32 1 3 C1.99 2.67 2.98 2.34 4 2 C3.01 1.67 2.02 1.34 1 1 Z " fill="#FFFFFF" transform="translate(54,42)"/>
<path d="M0 0 C1.98 0.495 1.98 0.495 4 1 C4 2.32 4 3.64 4 5 C2.35 4.67 0.7 4.34 -1 4 C-0.67 2.68 -0.34 1.36 0 0 Z " fill="#FFFFFF" transform="translate(174,43)"/>
<path d="M0 0 C1.98 0.495 1.98 0.495 4 1 C4 2.32 4 3.64 4 5 C2.35 4.67 0.7 4.34 -1 4 C-0.67 2.68 -0.34 1.36 0 0 Z " fill="#FFFFFF" transform="translate(107,43)"/>
<path d="M0 0 C1.98 0.495 1.98 0.495 4 1 C4 2.32 4 3.64 4 5 C2.35 4.67 0.7 4.34 -1 4 C-0.67 2.68 -0.34 1.36 0 0 Z " fill="#FFFFFF" transform="translate(99,43)"/>
<path d="M0 0 C1.98 0.495 1.98 0.495 4 1 C4 2.32 4 3.64 4 5 C2.35 4.67 0.7 4.34 -1 4 C-0.67 2.68 -0.34 1.36 0 0 Z " fill="#FFFFFF" transform="translate(77,43)"/>
<path d="M0 0 C0.99 0 1.98 0 3 0 C3 1.65 3 3.3 3 5 C1.68 4.67 0.36 4.34 -1 4 C-0.67 2.68 -0.34 1.36 0 0 Z " fill="#FFFFFF" transform="translate(145,43)"/>
<path d="M0 0 C0.99 0 1.98 0 3 0 C3.33 1.65 3.66 3.3 4 5 C2.35 5 0.7 5 -1 5 C-1 2 -1 2 0 0 Z " fill="#FFFFFF" transform="translate(69,43)"/>
<path d="M0 0 C0.66 0 1.32 0 2 0 C2 1.65 2 3.3 2 5 C2.99 5.33 3.98 5.66 5 6 C3.35 6 1.7 6 0 6 C0 4.02 0 2.04 0 0 Z " fill="#FFFFFF" transform="translate(90,42)"/>
<path d="M0 0 C1.32 0 2.64 0 4 0 C4 1.65 4 3.3 4 5 C3.67 4.01 3.34 3.02 3 2 C2.34 2 1.68 2 1 2 C0.67 2.99 0.34 3.98 0 5 C0 3.35 0 1.7 0 0 Z " fill="#FFFFFF" transform="translate(136,43)"/>
<path d="M0 0 C0.99 0.495 0.99 0.495 2 1 C2 2.98 2 4.96 2 7 C1.34 7 0.68 7 0 7 C0 4.69 0 2.38 0 0 Z " fill="#FFFFFF" transform="translate(161,41)"/>
<path d="M0 0 C0.99 0.495 0.99 0.495 2 1 C2 2.98 2 4.96 2 7 C1.34 7 0.68 7 0 7 C0 4.69 0 2.38 0 0 Z " fill="#FFFFFF" transform="translate(63,41)"/>
<path d="M0 0 C0.99 0 1.98 0 3 0 C3 0.66 3 1.32 3 2 C2.34 2 1.68 2 1 2 C0.67 2.99 0.34 3.98 0 5 C0 3.35 0 1.7 0 0 Z " fill="#FFFFFF" transform="translate(167,43)"/>
<path d="M0 0 C0.33 0 0.66 0 1 0 C1 1.98 1 3.96 1 6 C0.67 6 0.34 6 0 6 C0 4.02 0 2.04 0 0 Z " fill="#FFFFFF" transform="translate(130,42)"/>
<path d="M0 0 C2 1 2 1 2 1 Z " fill="#FFFFFF" transform="translate(124,47)"/>
<path d="" fill="#FFFFFF" transform="translate(0,0)"/>
<path d="" fill="#FFFFFF" transform="translate(0,0)"/>
</svg>
