<?xml version="1.0" encoding="UTF-8"?>
<svg version="1.1" xmlns="http://www.w3.org/2000/svg" width="761" height="152">
<path d="M0 0 C5.17027855 1.03405571 6.18734067 1.66967851 9.8125 5.125 C10.68003906 5.93710938 11.54757812 6.74921875 12.44140625 7.5859375 C13.70791016 8.78089844 13.70791016 8.78089844 15 10 C16.40960677 11.25795596 17.82562144 12.50879488 19.25 13.75 C19.88550781 14.30558594 20.52101563 14.86117188 21.17578125 15.43359375 C22.90837379 16.92132311 24.66712169 18.37012527 26.4375 19.8125 C29 22 29 22 30 24 C30 55.35 30 86.7 30 119 C-205.29 119 -440.58 119 -683 119 C-683 126.92 -683 134.84 -683 143 C-684.65 142.67 -686.3 142.34 -688 142 C-689.0625 140.0625 -689.0625 140.0625 -690 138 C-690.83917969 137.60361328 -690.83917969 137.60361328 -691.6953125 137.19921875 C-694.85953396 135.55275098 -697.24538785 133.18337442 -699.8125 130.75 C-700.8178705 129.80607607 -701.82439156 128.86337618 -702.83203125 127.921875 C-703.55018336 127.23530288 -703.55018336 127.23530288 -704.28284359 126.53486061 C-705.96073662 124.97445225 -705.96073662 124.97445225 -707.81268406 123.72946739 C-710.50976203 121.7750231 -712.62425794 120.21256054 -713.63331413 116.95622635 C-713.86052973 114.50784767 -713.86682547 112.14790142 -713.79467773 109.68994141 C-713.79569992 108.77222961 -713.79672211 107.85451782 -713.79777527 106.90899658 C-713.792915 103.88865537 -713.73854845 100.87137258 -713.68359375 97.8515625 C-713.67053199 95.75265148 -713.66057055 93.65371907 -713.65357971 91.55477905 C-713.62689994 86.04031059 -713.55817691 80.5271404 -713.48065186 75.01318359 C-713.40894166 69.38266563 -713.37705151 63.75193711 -713.34179688 58.12109375 C-713.26680698 47.08015991 -713.14739286 36.04018807 -713 25 C-667.68120089 24.90334112 -622.36240054 24.80728007 -577.04359436 24.71398926 C-576.01647029 24.71187465 -576.01647029 24.71187465 -574.96859623 24.70971733 C-560.04116249 24.67898844 -545.11372856 24.64835486 -530.18629443 24.61781773 C-522.85230498 24.60281398 -515.51831556 24.58778944 -508.18432617 24.57275391 C-507.09034126 24.57051164 -507.09034126 24.57051164 -505.97425563 24.56822408 C-484.28891262 24.52376819 -462.60357218 24.47821191 -440.91823332 24.43177553 C-407.27604626 24.35975356 -373.63385562 24.28965865 -339.99165768 24.22289652 C-338.59861356 24.22013184 -337.20556944 24.21736495 -335.81252532 24.21459585 C-246.06750809 24.03621438 -156.32281139 23.95168373 0 24 C0 16.08 0 8.16 0 0 Z M-557 35 C-557 59.42 -557 83.84 -557 109 C-366.26 109 -175.52 109 21 109 C21 84.58 21 60.16 21 35 C-169.74 35 -360.48 35 -557 35 Z M-690 54 C-690 67.53 -690 81.06 -690 95 C-687.03 95 -684.06 95 -681 95 C-681 81.47 -681 67.94 -681 54 C-683.97 54 -686.94 54 -690 54 Z M-672 54 C-672 67.53 -672 81.06 -672 95 C-663.75 95 -655.5 95 -647 95 C-647 93.02 -647 91.04 -647 89 C-652.61 89 -658.22 89 -664 89 C-664 85.04 -664 81.08 -664 77 C-659.05 77 -654.1 77 -649 77 C-649 75.02 -649 73.04 -649 71 C-650.74991334 70.97284617 -652.49994945 70.95353449 -654.25 70.9375 C-655.22453125 70.92589844 -656.1990625 70.91429688 -657.203125 70.90234375 C-660.2342623 70.91085339 -660.2342623 70.91085339 -664 72 C-664 67.71 -664 63.42 -664 59 C-658.72 59 -653.44 59 -648 59 C-648 57.35 -648 55.7 -648 54 C-655.92 54 -663.84 54 -672 54 Z M-638 54 C-638 67.53 -638 81.06 -638 95 C-630.08 95 -622.16 95 -614 95 C-613.67 93.02 -613.34 91.04 -613 89 C-618.61 89 -624.22 89 -630 89 C-630 85.04 -630 81.08 -630 77 C-625.05 77 -620.1 77 -615 77 C-615 75.02 -615 73.04 -615 71 C-619.62 71 -624.24 71 -629 71 C-629 67.37 -629 63.74 -629 60 C-624.38 59.67 -619.76 59.34 -615 59 C-614.67 57.35 -614.34 55.7 -614 54 C-621.92 54 -629.84 54 -638 54 Z M-604 54 C-604.33 67.53 -604.66 81.06 -605 95 C-596.75 95 -588.5 95 -580 95 C-580 93.02 -580 91.04 -580 89 C-585.61 89 -591.22 89 -597 89 C-597 85.04 -597 81.08 -597 77 C-592.38 77 -587.76 77 -583 77 C-582.67 75.02 -582.34 73.04 -582 71 C-586.62 71 -591.24 71 -596 71 C-596 67.37 -596 63.74 -596 60 C-591.05 59.67 -586.1 59.34 -581 59 C-581 57.35 -581 55.7 -581 54 C-588.59 54 -596.18 54 -604 54 Z " fill="#00629B" transform="translate(719,5)"/>
<path d="M0 0 C5.28 0 10.56 0 16 0 C17.33963806 4.3314964 18.67305058 8.66462326 20 13 C20.23460937 13.7528125 20.46921875 14.505625 20.7109375 15.28125 C21.65625744 18.40491589 22 20.67156139 22 24 C22.66 24 23.32 24 24 24 C24.09796875 23.35675781 24.1959375 22.71351562 24.296875 22.05078125 C25.55146468 14.46916604 27.61015721 7.29714135 30 0 C32.64590014 -0.02684679 35.29153096 -0.04676357 37.9375 -0.0625 C38.69224609 -0.07087891 39.44699219 -0.07925781 40.22460938 -0.08789062 C42.14994313 -0.09652441 44.07535581 -0.05224333 46 0 C48.1925982 2.1925982 47.43092226 7.19723443 47.5625 10.25 C47.6049585 11.17772217 47.64741699 12.10544434 47.69116211 13.0612793 C48.10821002 23.04105948 48.0910595 33.01380797 48 43 C44.04 43 40.08 43 36 43 C35.505 30.625 35.505 30.625 35 18 C33.06797005 25.4786129 33.06797005 25.4786129 31.14086914 32.95849609 C30.77916626 34.35189209 30.77916626 34.35189209 30.41015625 35.7734375 C30.16402588 36.72653809 29.91789551 37.67963867 29.66430664 38.66162109 C29 41 29 41 28 43 C24.04 43 20.08 43 16 43 C14.02 35.08 12.04 27.16 10 19 C9.7121331 24.65337509 9.7121331 24.65337509 9.43188477 30.30712891 C9.20311695 34.60486842 8.81567547 38.76397107 8 43 C4.7 43 1.4 43 -2 43 C-2.13541299 34.31852278 -1.92454278 25.67322598 -1.5625 17 C-1.52326416 16.0092749 -1.48402832 15.0185498 -1.44360352 13.99780273 C-1.40162842 13.04977783 -1.35965332 12.10175293 -1.31640625 11.125 C-1.27974854 10.28195313 -1.24309082 9.43890625 -1.20532227 8.5703125 C-0.97560302 5.69458806 -0.47427219 2.84563313 0 0 Z " fill="#00629B" transform="translate(175,57)"/>
<path d="M0 0 C0.33 5.28 0.66 10.56 1 16 C2.98 15.67 4.96 15.34 7 15 C12.54458932 15.97273497 15.36533326 17.72392148 19 22 C21.22845822 26.45691643 20.49152017 32.16389346 20 37 C18.35344031 41.78462188 16.39093071 44.24517645 11.93359375 46.6640625 C7.42800431 48.45303784 2.92415462 48.5958987 -1.875 48.75 C-2.74125 48.79253906 -3.6075 48.83507812 -4.5 48.87890625 C-9.12254679 49.07453127 -9.12254679 49.07453127 -11 49 C-12 48 -12 48 -12.12025452 46.09544373 C-12.11803391 45.26271439 -12.11581329 44.42998505 -12.11352539 43.57202148 C-12.11344986 42.63112167 -12.11337433 41.69022186 -12.11329651 40.72080994 C-12.10813522 39.69790359 -12.10297394 38.67499725 -12.09765625 37.62109375 C-12.0962413 36.57929459 -12.09482635 35.53749542 -12.09336853 34.46412659 C-12.0877508 31.12188906 -12.0751953 27.77971743 -12.0625 24.4375 C-12.05748728 22.17773534 -12.05292398 19.91796963 -12.04882812 17.65820312 C-12.03777561 12.10544609 -12.02102024 6.55272775 -12 1 C-7.7345163 -0.03405665 -4.62683027 0 0 0 Z M1 24 C-0.39156484 25.16277032 -0.39156484 25.16277032 -0.09765625 28.37890625 C-0.09098369 29.77347077 -0.07902532 31.16801743 -0.0625 32.5625 C-0.05798828 33.27341797 -0.05347656 33.98433594 -0.04882812 34.71679688 C-0.03700864 36.47790013 -0.01907263 38.23896036 0 40 C2.93443402 39.73343428 2.93443402 39.73343428 6 39 C8.06520632 35.90219052 8.29477024 35.0459519 8.3125 31.5 C8.32925781 30.7265625 8.34601562 29.953125 8.36328125 29.15625 C8.15095138 26.93728226 8.15095138 26.93728226 6.73046875 25.21875 C4.80770776 23.61612442 4.80770776 23.61612442 1 24 Z " fill="#00629B" transform="translate(508,52)"/>
<path d="M0 0 C0 5.28 0 10.56 0 16 C3.465 15.505 3.465 15.505 7 15 C11.37494798 15.67887124 14.00168993 16.61833147 16.875 19.9375 C20.29219614 24.86228268 20.67955043 29.16719218 20 35 C18.28577725 40.31036395 15.75571973 43.95146171 11 47 C3.6993151 49.43356163 -4.31400391 48.6157002 -12 49 C-12.33 33.16 -12.66 17.32 -13 1 C-8 0 -8 0 0 0 Z M1 24 C-0.39156484 25.16277032 -0.39156484 25.16277032 -0.09765625 28.37890625 C-0.09098369 29.77347077 -0.07902532 31.16801743 -0.0625 32.5625 C-0.05798828 33.27341797 -0.05347656 33.98433594 -0.04882812 34.71679688 C-0.03700864 36.47790013 -0.01907263 38.23896036 0 40 C3.74418176 39.4428004 3.74418176 39.4428004 6.8125 37.375 C8.48520386 34.02959229 8.46126687 31.69013497 8 28 C6.33211068 25.49722089 6.33211068 25.49722089 4 24 C3.01 24 2.02 24 1 24 Z " fill="#00629A" transform="translate(327,52)"/>
<path d="M0 0 C-0.33 3.3 -0.66 6.6 -1 10 C-2.2375 9.505 -2.2375 9.505 -3.5 9 C-7.5873983 7.83217191 -10.76923344 7.8541115 -15 8 C-15.2113453 10.3912295 -15.2113453 10.3912295 -14 13 C-11.8310204 14.23877804 -9.61440345 15.11617813 -7.29296875 16.03515625 C-2.71898382 17.95981431 0.09930743 20.46312947 2 25 C2.83146092 29.73495115 2.57663823 33.78607202 -0.0625 37.875 C-3.79268769 42.32849278 -7.47254523 43.77596843 -13.12890625 44.27734375 C-19.17944564 44.44942963 -23.93039758 44.4762988 -29 41 C-28.67 37.7 -28.34 34.4 -28 31 C-24 32 -24 32 -21.6875 33.125 C-18.18307638 34.26597513 -15.57255796 33.70050156 -12 33 C-11.67 31.68 -11.34 30.36 -11 29 C-13.5232245 27.47791125 -16.05162615 25.9702782 -18.60546875 24.5 C-19.45753906 24.005 -20.30960937 23.51 -21.1875 23 C-22.47720703 22.2575 -22.47720703 22.2575 -23.79296875 21.5 C-26 20 -26 20 -28 17 C-28.75626015 11.4116355 -29.10735967 6.58194239 -25.8125 1.875 C-18.13920655 -3.24052897 -8.47733275 -3.76770345 0 0 Z " fill="#00619B" transform="translate(453,58)"/>
<path d="M0 0 C0.33 0.66 0.66 1.32 1 2 C1.66 1.67 2.32 1.34 3 1 C5.6796875 0.69140625 5.6796875 0.69140625 8.875 0.5625 C10.44894531 0.47162109 10.44894531 0.47162109 12.0546875 0.37890625 C15 1 15 1 17.3671875 3.19140625 C20.30025277 8.33760258 19.41092953 14.66200174 19.25 20.375 C19.23195313 21.58800781 19.21390625 22.80101563 19.1953125 24.05078125 C19.14832216 27.0346679 19.08263372 30.01692279 19 33 C16.75487738 34.12256131 15.48543351 34.13413762 13 34.125 C11.948125 34.12886719 11.948125 34.12886719 10.875 34.1328125 C9 34 9 34 7 33 C6.97494385 32.40461426 6.9498877 31.80922852 6.92407227 31.19580078 C6.80822506 28.50530864 6.68544804 25.8151766 6.5625 23.125 C6.52318359 22.18785156 6.48386719 21.25070313 6.44335938 20.28515625 C6.40146484 19.38925781 6.35957031 18.49335937 6.31640625 17.5703125 C6.27974854 16.74289551 6.24309082 15.91547852 6.20532227 15.06298828 C6.11761673 12.93820571 6.11761673 12.93820571 5 11 C3.35 11 1.7 11 0 11 C0 18.26 0 25.52 0 33 C-3.96 33 -7.92 33 -12 33 C-12.33 22.77 -12.66 12.54 -13 2 C-4 0 -4 0 0 0 Z " fill="#00629B" transform="translate(712,67)"/>
<path d="M0 0 C3.96 0 7.92 0 12 0 C12.33 7.26 12.66 14.52 13 22 C14.65 22.33 16.3 22.66 18 23 C18.33 15.41 18.66 7.82 19 0 C22.96 0 26.92 0 31 0 C31 10.56 31 21.12 31 32 C26.71 32 22.42 32 18 32 C16.1128125 32.5878125 16.1128125 32.5878125 14.1875 33.1875 C10.35614128 34.16412085 8.43419813 33.59283774 4.796875 32.3125 C1.8844992 30.18519942 1.19533633 28.44344593 0 25 C-0.35372003 20.7004848 -0.28236282 16.43517757 -0.1875 12.125 C-0.17396484 10.9596875 -0.16042969 9.794375 -0.14648438 8.59375 C-0.11126163 5.72896707 -0.05745871 2.86442322 0 0 Z " fill="#00629B" transform="translate(459,68)"/>
<path d="M0 0 C1.30710937 -0.01417969 2.61421875 -0.02835937 3.9609375 -0.04296875 C7.40138206 0.17343448 9.50296624 0.88021731 12.625 2.1875 C13.615 1.8575 14.605 1.5275 15.625 1.1875 C15.604375 2.280625 15.58375 3.37375 15.5625 4.5 C15.43955548 8.13134191 15.43955548 8.13134191 16.625 11.1875 C17.31611762 18.78979384 16.62645612 24.50829573 11.6875 30.5625 C6.70030617 34.49180423 -0.34700161 33.62384305 -6.375 33.1875 C-11.68787682 31.47978959 -13.68976451 29.00298494 -16.375 24.1875 C-16.87109375 20.49609375 -16.87109375 20.49609375 -16.8125 16.625 C-16.81121094 15.34496094 -16.80992187 14.06492187 -16.80859375 12.74609375 C-16.20859865 7.82180965 -14.18047236 4.35872697 -10.375 1.1875 C-6.77617994 -0.01210669 -3.79362018 0.01863271 0 0 Z M-2.375 7.1875 C-4.76354824 10.77032235 -4.64398802 12.50143033 -4.625 16.75 C-4.63015625 17.90628906 -4.6353125 19.06257813 -4.640625 20.25390625 C-4.67963182 23.30984222 -4.67963182 23.30984222 -2.375 25.1875 C0.20854218 25.35437448 0.20854218 25.35437448 2.625 25.1875 C4.42616392 22.08748878 4.9211501 19.76267903 4.9375 16.1875 C4.95425781 15.341875 4.97101562 14.49625 4.98828125 13.625 C4.54483171 10.6495966 3.77371838 9.2828642 1.625 7.1875 C0.305 7.1875 -1.015 7.1875 -2.375 7.1875 Z " fill="#00629B" transform="translate(679.375,67.8125)"/>
<path d="M0 0 C0.75087891 -0.02449219 1.50175781 -0.04898438 2.27539062 -0.07421875 C6.22485751 -0.09506026 8.12023611 0.09255552 11.53515625 2.2734375 C14.79466297 5.65227105 14.68249259 7.65652644 14.66015625 12.2578125 C14.65693359 13.42441406 14.65371094 14.59101562 14.65039062 15.79296875 C14.64201172 17.01628906 14.63363281 18.23960938 14.625 19.5 C14.62048828 20.73105469 14.61597656 21.96210937 14.61132812 23.23046875 C14.5995133 26.27869392 14.58304028 29.32682314 14.5625 32.375 C13.73105469 32.36339844 12.89960938 32.35179688 12.04296875 32.33984375 C10.41294922 32.32630859 10.41294922 32.32630859 8.75 32.3125 C7.67105469 32.30089844 6.59210938 32.28929688 5.48046875 32.27734375 C2.49737831 32.23875234 2.49737831 32.23875234 -0.4375 33.375 C-5.79230837 33.72047151 -9.0759043 33.83862011 -13.4375 30.375 C-16.12578186 26.34257721 -16.22128443 23.11105909 -15.4375 18.375 C-12.04488873 13.34080263 -7.18013188 11.63858447 -1.4375 10.375 C-0.1175 10.375 1.2025 10.375 2.5625 10.375 C2.5625 9.715 2.5625 9.055 2.5625 8.375 C-2.4677076 8.90037724 -7.45635239 9.48094786 -12.4375 10.375 C-12.4375 7.735 -12.4375 5.095 -12.4375 2.375 C-8.56930071 -0.19011889 -4.47447543 0.00764214 0 0 Z M-4.4375 20.375 C-4.1075 21.695 -3.7775 23.015 -3.4375 24.375 C0.0275 23.88 0.0275 23.88 3.5625 23.375 C3.5625 21.395 3.5625 19.415 3.5625 17.375 C0.95310143 17.375 -2.0776989 19.34526861 -4.4375 20.375 Z " fill="#00629B" transform="translate(242.4375,67.625)"/>
<path d="M0 0 C0.75087891 -0.02449219 1.50175781 -0.04898438 2.27539062 -0.07421875 C6.22485751 -0.09506026 8.12023611 0.09255552 11.53515625 2.2734375 C14.79466297 5.65227105 14.68249259 7.65652644 14.66015625 12.2578125 C14.65693359 13.42441406 14.65371094 14.59101562 14.65039062 15.79296875 C14.64201172 17.01628906 14.63363281 18.23960938 14.625 19.5 C14.62048828 20.73105469 14.61597656 21.96210937 14.61132812 23.23046875 C14.5995133 26.27869392 14.58304028 29.32682314 14.5625 32.375 C13.73105469 32.36339844 12.89960938 32.35179688 12.04296875 32.33984375 C10.41294922 32.32630859 10.41294922 32.32630859 8.75 32.3125 C7.67105469 32.30089844 6.59210938 32.28929688 5.48046875 32.27734375 C2.49737831 32.23875234 2.49737831 32.23875234 -0.4375 33.375 C-5.79230837 33.72047151 -9.0759043 33.83862011 -13.4375 30.375 C-16.12578186 26.34257721 -16.22128443 23.11105909 -15.4375 18.375 C-12.04488873 13.34080263 -7.18013188 11.63858447 -1.4375 10.375 C-0.1175 10.375 1.2025 10.375 2.5625 10.375 C2.5625 9.715 2.5625 9.055 2.5625 8.375 C-2.4677076 8.90037724 -7.45635239 9.48094786 -12.4375 10.375 C-12.4375 7.735 -12.4375 5.095 -12.4375 2.375 C-8.56930071 -0.19011889 -4.47447543 0.00764214 0 0 Z M-4.4375 20.375 C-4.1075 21.695 -3.7775 23.015 -3.4375 24.375 C0.0275 23.88 0.0275 23.88 3.5625 23.375 C3.5625 21.395 3.5625 19.415 3.5625 17.375 C0.48240121 17.375 -1.74885136 18.9722268 -4.4375 20.375 Z " fill="#00629B" transform="translate(294.4375,67.625)"/>
<path d="M0 0 C0.75087891 -0.03738281 1.50175781 -0.07476562 2.27539062 -0.11328125 C6.06269099 -0.17323851 8.18422975 0.1645748 11.546875 2.03515625 C14.8039328 7.43202528 14.34620776 13.0035662 14.375 19.1875 C14.40013672 20.45271484 14.42527344 21.71792969 14.45117188 23.02148438 C14.51000491 26.13963543 14.54631506 29.25638367 14.5625 32.375 C13.64726562 32.36339844 12.73203125 32.35179688 11.7890625 32.33984375 C10.60054688 32.33082031 9.41203125 32.32179688 8.1875 32.3125 C7.00414062 32.30089844 5.82078125 32.28929688 4.6015625 32.27734375 C1.64328479 32.16033407 1.64328479 32.16033407 -0.4375 33.375 C-4.72569956 33.81308718 -8.38172448 33.82426618 -12.375 32.125 C-14.63790404 30.20496021 -15.57229929 29.20656597 -16.4375 26.375 C-16.63319268 22.65683899 -16.61740239 19.91470718 -15.4375 16.375 C-10.43327485 12.07289828 -4.84904585 10.36938327 1.5625 9.375 C-5.49401252 9.22524761 -5.49401252 9.22524761 -12.4375 10.375 C-12.4375 7.405 -12.4375 4.435 -12.4375 1.375 C-8.23009708 0.32314927 -4.30393122 0.08085951 0 0 Z M-3.4375 19.375 C-4.41483657 21.36275876 -4.41483657 21.36275876 -4.4375 23.375 C-3.3779123 24.65822547 -3.3779123 24.65822547 -0.9375 24.5 C1.5029123 24.65822547 1.5029123 24.65822547 2.5625 23.375 C2.60330783 21.37541636 2.60504356 19.37454746 2.5625 17.375 C0.30957828 17.375 -1.46872551 18.39061275 -3.4375 19.375 Z " fill="#00629B" transform="translate(365.4375,67.625)"/>
<path d="M0 0 C3.47161402 2.96108254 4.95811588 5.80989062 5.33984375 10.390625 C5.37197313 12.88957697 5.36859823 15.32498735 5.125 17.8125 C3.00574396 19.93175604 -1.4946093 19.23081017 -4.4375 19.375 C-5.24380859 19.41818359 -6.05011719 19.46136719 -6.88085938 19.50585938 C-8.87868805 19.61225262 -10.8768207 19.71290888 -12.875 19.8125 C-9.65030278 21.9884696 -7.70961671 23.27529272 -3.8125 22.5625 C-3.16152344 22.45421875 -2.51054688 22.3459375 -1.83984375 22.234375 C0.1586009 21.80528549 2.14203755 21.30824061 4.125 20.8125 C4.125 23.7825 4.125 26.7525 4.125 29.8125 C-2.27621376 32.78152308 -9.54818014 32.94863037 -16.359375 31.16015625 C-20.43447522 29.37538491 -23.25854702 27.05237415 -25.25390625 22.9375 C-26.90393311 17.29212508 -26.55381629 11.74712643 -24.625 6.25 C-22.84512206 3.7708843 -21.73072721 2.79723352 -18.875 1.8125 C-18.875 1.1525 -18.875 0.4925 -18.875 -0.1875 C-12.26374771 -2.57880402 -6.57274906 -2.71483113 0 0 Z M-12.625 7.125 C-14.07340918 8.7303462 -14.07340918 8.7303462 -13.875 10.8125 C-11.235 10.4825 -8.595 10.1525 -5.875 9.8125 C-6.205 8.8225 -6.535 7.8325 -6.875 6.8125 C-9.44627809 5.61257023 -10.31048642 5.38911482 -12.625 7.125 Z " fill="#00629C" transform="translate(585.875,69.1875)"/>
<path d="M0 0 C0.73283203 -0.00386719 1.46566406 -0.00773437 2.22070312 -0.01171875 C7.68413018 -0.00168491 7.68413018 -0.00168491 9.9375 1.125 C9.6075 4.095 9.2775 7.065 8.9375 10.125 C8.23625 9.795 7.535 9.465 6.8125 9.125 C3.67746884 8.03455438 1.23186818 7.97177357 -2.0625 8.125 C-2.3925 8.785 -2.7225 9.445 -3.0625 10.125 C-2.38703125 10.29515625 -1.7115625 10.4653125 -1.015625 10.640625 C2.76606694 11.66802108 6.18437322 12.67671025 9.5625 14.6875 C11.8202535 18.6898812 11.78260471 22.66111358 10.9375 27.125 C8.27909313 30.74338713 6.29089591 32.35175028 1.9375 33.125 C-0.03919865 33.24191615 -2.0198861 33.30001504 -4 33.3125 C-5.01964844 33.32667969 -6.03929687 33.34085938 -7.08984375 33.35546875 C-10.13409667 33.11944914 -12.30987643 32.40752995 -15.0625 31.125 C-15.0625 28.485 -15.0625 25.845 -15.0625 23.125 C-14.2375 23.269375 -13.4125 23.41375 -12.5625 23.5625 C-8.73563722 24.17753152 -4.91033293 24.66060637 -1.0625 25.125 C-1.71252233 22.02795957 -1.71252233 22.02795957 -3.98828125 21.09765625 C-4.77589844 20.79730469 -5.56351563 20.49695313 -6.375 20.1875 C-12.98459798 17.37736837 -12.98459798 17.37736837 -15.0625 14.125 C-15.66868886 9.35126273 -15.77841834 7.28528144 -13.25 3.1875 C-9.30571302 -0.53139915 -5.1156271 -0.02713861 0 0 Z " fill="#00639C" transform="translate(546.0625,67.875)"/>
<path d="M0 0 C0 3.3 0 6.6 0 10 C1.98 10 3.96 10 6 10 C6 12.64 6 15.28 6 18 C4.02 18 2.04 18 0 18 C0 23.28 0 28.56 0 34 C1.98 34 3.96 34 6 34 C6 36.64 6 39.28 6 42 C2.31289296 43.84355352 -1.96675356 43.35512862 -6 43 C-9.0625 41.75 -9.0625 41.75 -11 40 C-12.23265304 36.56898484 -12.13335817 33.17740951 -12.125 29.5625 C-12.12886719 27.89380859 -12.12886719 27.89380859 -12.1328125 26.19140625 C-12.01399223 23.33622508 -11.65353269 20.77492054 -11 18 C-12.65 18 -14.3 18 -16 18 C-15.67 15.36 -15.34 12.72 -15 10 C-13.68 10 -12.36 10 -11 10 C-11.33 7.36 -11.66 4.72 -12 2 C-7.69214025 0.64851459 -4.58042408 0 0 0 Z " fill="#00629B" transform="translate(637,58)"/>
<path d="M0 0 C-0.33 2.97 -0.66 5.94 -1 9 C-4.3 8.34 -7.6 7.68 -11 7 C-11 7.66 -11 8.32 -11 9 C-11.66 9 -12.32 9 -13 9 C-13 13.29 -13 17.58 -13 22 C-8.71 22 -4.42 22 0 22 C-0.33 24.97 -0.66 27.94 -1 31 C-6.55578376 32.85192792 -13.29166847 32.91850158 -18.875 31 C-23.0457737 28.33070483 -25.23089593 25.62628541 -27 21 C-28.07293447 15.06121357 -27.27331018 9.92206505 -24.26171875 4.69140625 C-21.42799694 0.89263986 -18.2377307 -0.66676481 -13.75 -1.875 C-8.94622559 -2.03512581 -4.64962833 -1.13200207 0 0 Z " fill="#00629A" transform="translate(621,69)"/>
<path d="M0 0 C0 15.84 0 31.68 0 48 C-3.96 48 -7.92 48 -12 48 C-12.33 32.49 -12.66 16.98 -13 1 C-8 0 -8 0 0 0 Z " fill="#00629B" transform="translate(275,52)"/>
<path d="M0 0 C0.33 0.66 0.66 1.32 1 2 C1.33 1.67 1.66 1.34 2 1 C3.99958364 0.95919217 6.00045254 0.95745644 8 1 C8.14285714 8.42857143 8.14285714 8.42857143 7 12 C5.02 12.33 3.04 12.66 1 13 C1 19.6 1 26.2 1 33 C-3.29 33 -7.58 33 -12 33 C-12.33 22.77 -12.66 12.54 -13 2 C-4 0 -4 0 0 0 Z " fill="#00629A" transform="translate(397,67)"/>
<path d="M0 0 C0 10.89 0 21.78 0 33 C-4.29 33 -8.58 33 -13 33 C-13 22.77 -13 12.54 -13 2 C-5 0 -5 0 0 0 Z " fill="#00629A" transform="translate(658,67)"/>
<path d="M0 0 C1.60875 0.020625 3.2175 0.04125 4.875 0.0625 C4.875 3.3625 4.875 6.6625 4.875 10.0625 C1.99288698 11.02320434 0.17649956 11.16831883 -2.8125 11.125 C-4.235625 11.104375 -5.65875 11.08375 -7.125 11.0625 C-7.125 7.7625 -7.125 4.4625 -7.125 1.0625 C-4.60024538 -0.19987731 -2.81299534 -0.03606404 0 0 Z " fill="#00629D" transform="translate(652.125,52.9375)"/>
</svg>
