<?xml version="1.0" encoding="UTF-8"?>
<svg version="1.1" xmlns="http://www.w3.org/2000/svg" width="851" height="659">
<path d="M0 0 C280.83 0 561.66 0 851 0 C851 217.47 851 434.94 851 659 C570.17 659 289.34 659 0 659 C0 441.53 0 224.06 0 0 Z " fill="#FEFEFE" transform="translate(0,0)"/>
<path d="M0 0 C8.80337287 5.67269011 14.2711193 13.63810601 17.2578125 23.59375 C22.35239895 49.50026406 9.66053519 74.69764633 -4.23535156 95.86865234 C-14.67270828 111.18183047 -26.56359588 125.46938732 -39.24291992 138.96704102 C-40.38413816 140.2052656 -41.50902401 141.4585651 -42.6262207 142.71850586 C-48.42283382 149.25455325 -54.4760069 155.4819814 -60.6628418 161.64477539 C-62.30960154 163.28614796 -63.95090845 164.93283819 -65.59179688 166.58007812 C-70.59242832 171.58386508 -75.62239578 176.50471237 -81.00512695 181.10180664 C-83.76649554 183.47351759 -86.40040717 185.9787643 -89.0546875 188.46875 C-93.92458562 193.00401544 -98.93873274 197.28055551 -104.12890625 201.44921875 C-106.74066373 203.59249956 -109.24584052 205.8175533 -111.7421875 208.09375 C-116.38696277 212.31693378 -121.19639991 216.29278073 -126.07568359 220.24072266 C-129.43521233 222.96830956 -132.77572081 225.71909015 -136.1171875 228.46875 C-136.84558838 229.0678418 -137.57398926 229.66693359 -138.32446289 230.28417969 C-144.29877878 235.20741538 -150.2429817 240.16959003 -156.07003307 245.26702595 C-157.7421875 246.59375 -157.7421875 246.59375 -159.97907734 247.95614147 C-163.52659614 250.25255336 -166.24994884 252.04712438 -167.56586266 256.18175697 C-167.86441079 259.35736349 -167.87893639 262.42380061 -167.7956543 265.61254883 C-167.80018112 266.80695084 -167.80470795 268.00135284 -167.80937195 269.23194885 C-167.81261666 272.49377685 -167.77593628 275.75213274 -167.72059608 279.01339936 C-167.67152316 282.43857464 -167.67234332 285.86375878 -167.66719055 289.28923035 C-167.65156101 295.04366843 -167.60287972 300.79702638 -167.53100586 306.55102539 C-167.43009428 314.63793436 -167.39229892 322.72425576 -167.36555231 330.81169856 C-167.34442982 336.44098876 -167.30747447 342.07019318 -167.26799417 347.69938064 C-167.2586162 349.0566251 -167.24973647 350.41387311 -167.24135947 351.77112412 C-167.21334026 356.24325027 -167.167038 360.71489855 -167.11206055 365.18676758 C-167.10511169 366.29930908 -167.09816284 367.41185059 -167.09100342 368.55810547 C-167.06002557 379.80419774 -167.06002557 379.80419774 -163.1328125 390.078125 C-159.75525919 392.21944965 -156.37350514 393.0071409 -152.4921875 393.84375 C-151.74710938 394.01648438 -151.00203125 394.18921875 -150.234375 394.3671875 C-148.40658463 394.78898528 -146.57473958 395.19314559 -144.7421875 395.59375 C-144.7421875 398.89375 -144.7421875 402.19375 -144.7421875 405.59375 C-169.8221875 405.59375 -194.9021875 405.59375 -220.7421875 405.59375 C-220.7421875 401.96375 -220.7421875 398.33375 -220.7421875 394.59375 C-219.71738281 394.43519531 -218.69257812 394.27664063 -217.63671875 394.11328125 C-216.27586084 393.87865058 -214.91519315 393.6429147 -213.5546875 393.40625 C-212.54438477 393.25446289 -212.54438477 393.25446289 -211.51367188 393.09960938 C-206.42556583 392.18126828 -203.73795248 390.81629991 -200.7421875 386.59375 C-198.77920605 380.03628279 -198.4584226 373.44263475 -198.51513672 366.64599609 C-198.51469864 365.23929153 -198.51469864 365.23929153 -198.51425171 363.8041687 C-198.51563158 360.74174348 -198.53112881 357.67956958 -198.546875 354.6171875 C-198.55060991 352.4791375 -198.55345462 350.34108578 -198.55545044 348.20303345 C-198.56304922 342.60369048 -198.58266513 337.00445297 -198.6048584 331.40515137 C-198.62539809 325.68027167 -198.63446946 319.95537476 -198.64453125 314.23046875 C-198.66591483 303.0181831 -198.70000499 291.80597535 -198.7421875 280.59375 C-200.49333103 282.02218292 -202.24386349 283.45136499 -203.99414062 284.88085938 C-205.45648132 286.07455139 -205.45648132 286.07455139 -206.94836426 287.2923584 C-210.43535209 290.1647393 -213.84759873 293.11341134 -217.2421875 296.09375 C-221.62304912 299.9183029 -226.03285661 303.68535217 -230.5546875 307.34375 C-234.91589149 310.87394171 -239.07740674 314.57578456 -243.22265625 318.35546875 C-245.77423667 320.62222158 -248.39390282 322.76915087 -251.0546875 324.90625 C-256.50594851 329.31513108 -261.61932248 334.0289898 -266.7421875 338.80859375 C-269.70094772 341.56721339 -272.72613835 344.23986326 -275.78515625 346.88671875 C-278.127779 348.93008431 -280.43492172 351.01055859 -282.7421875 353.09375 C-285.65707679 355.72555445 -288.58491961 358.33661926 -291.5546875 360.90625 C-295.71899025 364.53213784 -299.76228706 368.284652 -303.81030273 372.0390625 C-307.21648301 375.19555182 -310.6511169 378.31531814 -314.1171875 381.40625 C-317.54221996 384.47220648 -320.81231823 387.63839107 -324.03515625 390.9140625 C-326.49541453 393.33491161 -329.08744425 395.58594991 -331.70703125 397.83203125 C-333.0735051 399.01490977 -334.41994391 400.22130223 -335.74609375 401.44921875 C-343.07679105 408.17739299 -350.26450126 412.0036758 -360.35546875 411.87109375 C-362.7421875 411.59375 -362.7421875 411.59375 -365.3671875 409.96875 C-367.14620801 406.89589639 -367.04339924 405.11792741 -366.7421875 401.59375 C-365.4921875 398.83984375 -365.4921875 398.83984375 -363.7421875 396.03125 C-363.09894531 394.97679687 -362.45570313 393.92234375 -361.79296875 392.8359375 C-360.48770989 390.7723854 -359.17355154 388.71441604 -357.84765625 386.6640625 C-336.85921133 353.74939328 -326.30581437 314.30836555 -314.51953125 277.39453125 C-314.15128235 276.24222015 -313.78303345 275.08990906 -313.40362549 273.90267944 C-311.58421365 268.20703251 -309.77048042 262.50970495 -307.96826172 256.80859375 C-303.24730569 241.93594332 -298.13428019 227.23626989 -292.7421875 212.59375 C-294.00820113 213.54052353 -295.27383282 214.48780781 -296.53930664 215.43530273 C-297.596567 216.22649757 -297.596567 216.22649757 -298.67518616 217.03367615 C-301.54402715 219.19894025 -304.36318543 221.42364139 -307.1796875 223.65625 C-314.52305742 229.44892053 -321.94755155 235.13191926 -329.38818359 240.79882812 C-331.86938136 242.69073499 -334.3470058 244.58725407 -336.82421875 246.484375 C-346.03765574 253.533065 -355.2934191 260.51431228 -364.64794922 267.37475586 C-370.37478176 271.57669568 -376.06547015 275.82439237 -381.7421875 280.09375 C-394.84441092 289.93760039 -407.98699221 299.71225056 -421.40136719 309.12792969 C-428.81151893 314.33124238 -436.14398802 319.64014818 -443.47607422 324.95263672 C-447.97701083 328.21220318 -452.48394185 331.4634762 -456.98974609 334.71630859 C-460.75426315 337.43444523 -464.51731458 340.15456405 -468.27734375 342.87890625 C-476.26918012 348.6660981 -484.28880934 354.40875632 -492.36108398 360.08325195 C-496.65267938 363.10468907 -500.91777216 366.15947059 -505.16430664 369.24389648 C-521.53532339 381.13343131 -538.1796215 392.62287121 -554.96676636 403.91555786 C-556.42946411 404.90087632 -557.89037728 405.88884972 -559.34939575 406.87960815 C-561.41115119 408.27818134 -563.47993658 409.66571339 -565.55078125 411.05078125 C-566.46209305 411.67320206 -566.46209305 411.67320206 -567.39181519 412.30819702 C-573.76021166 416.53269677 -580.00380317 419.43176211 -587.75390625 418.16015625 C-590.79628148 417.29346783 -592.10338097 416.30134339 -593.7421875 413.59375 C-594.65557183 408.93548993 -593.75061818 406.12270064 -591.3046875 402.21875 C-588.3197446 398.07221375 -584.89181584 394.53069169 -581.18359375 391.02734375 C-578.51495013 388.36723979 -576.07491764 385.5658661 -573.60913086 382.71899414 C-569.9675925 378.57363107 -566.1416757 374.5989829 -562.34765625 370.59375 C-556.05528799 363.92357909 -550.07005769 357.00369542 -544.1171875 350.03125 C-540.91852071 346.28666792 -537.71175708 342.55054789 -534.46484375 338.84765625 C-528.68303115 332.24698982 -523.05941157 325.57773846 -517.6862793 318.63916016 C-514.87033233 315.00676727 -511.97238302 311.46937505 -508.9921875 307.96875 C-502.50868009 300.2502888 -496.56690215 292.12411622 -490.56005859 284.03320312 C-488.91928658 281.83140432 -487.26665342 279.6395411 -485.60546875 277.453125 C-474.0680851 262.25359429 -463.14836408 246.58856746 -452.7421875 230.59375 C-452.22720703 229.80339355 -451.71222656 229.01303711 -451.18164062 228.19873047 C-437.18542011 206.64504083 -424.26588182 184.56992714 -412.7421875 161.59375 C-412.32598145 160.76536621 -411.90977539 159.93698242 -411.48095703 159.08349609 C-396.87848118 129.77783765 -381.66715321 93.00253572 -390.3046875 59.78125 C-394.3897501 47.99906944 -401.31872843 38.9626402 -412.2421875 32.90625 C-441.89693032 19.37795343 -476.28713294 27.75093897 -505.52026367 38.31079102 C-551.68070427 55.56074414 -594.10551423 84.02430635 -622.7421875 124.59375 C-623.18997559 125.21813965 -623.63776367 125.8425293 -624.09912109 126.48583984 C-641.07249952 150.28649898 -653.77692911 177.78143965 -654.1171875 207.34375 C-654.13845703 208.76385376 -654.13845703 208.76385376 -654.16015625 210.21264648 C-654.08278791 221.31597036 -651.2699283 233.36697583 -643.734375 241.85546875 C-634.21459695 250.82794249 -622.72010417 254.16288043 -609.76953125 253.8359375 C-585.05659253 251.8589024 -564.47590232 238.95359375 -545.7421875 223.59375 C-545.17790039 223.13242676 -544.61361328 222.67110352 -544.03222656 222.19580078 C-531.41232828 211.80356441 -519.66666861 200.62969005 -509.7421875 187.59375 C-508.95457031 186.56121094 -508.16695312 185.52867187 -507.35546875 184.46484375 C-491.57830917 163.30712442 -476.15515208 137.87010169 -478.7421875 110.59375 C-479.91414169 106.03232047 -481.49813387 102.18989428 -484.3984375 98.46875 C-485.7421875 96.59375 -485.7421875 96.59375 -485.4296875 94.34375 C-485.089375 93.4775 -485.089375 93.4775 -484.7421875 92.59375 C-480.27400559 93.10439936 -477.92090516 94.41503234 -474.7421875 97.59375 C-468.50025177 106.64271008 -466.18144652 116.3395798 -466.3046875 127.21875 C-466.31298584 128.1780542 -466.32128418 129.1373584 -466.32983398 130.12573242 C-466.53228332 138.75756691 -467.8904681 146.43369722 -470.7421875 154.59375 C-471.09627686 155.61130371 -471.09627686 155.61130371 -471.45751953 156.64941406 C-477.24593522 172.76442305 -486.00930934 187.29001493 -496.7421875 200.59375 C-497.362146 201.37395508 -497.362146 201.37395508 -497.99462891 202.16992188 C-521.86716179 232.08465657 -560.04751033 258.0602108 -598.53125 263.36669922 C-619.60489221 265.53084313 -640.19420055 262.87693474 -657.34375 249.609375 C-667.7424052 240.87044001 -673.5817756 228.02677577 -675.2265625 214.65625 C-677.99726293 177.76171144 -660.50977525 145.47486796 -637.7421875 117.59375 C-637.2982666 117.04686523 -636.8543457 116.49998047 -636.39697266 115.93652344 C-625.18833313 102.22697844 -612.81014751 89.38229152 -598.7421875 78.59375 C-597.45643333 77.58018512 -596.17132626 76.56579904 -594.88671875 75.55078125 C-561.18671368 49.12370751 -521.67201792 28.91252655 -479.7421875 19.59375 C-479.06816895 19.43148926 -478.39415039 19.26922852 -477.69970703 19.10205078 C-455.09131299 13.79627848 -426.24413097 13.8394146 -403.7421875 19.59375 C-403.06720215 19.76003906 -402.3922168 19.92632812 -401.69677734 20.09765625 C-388.08152809 23.56978593 -374.49385683 29.41797547 -363.7421875 38.59375 C-363.16597656 39.02816406 -362.58976562 39.46257812 -361.99609375 39.91015625 C-348.40078624 50.53811379 -342.05603631 67.33732453 -339.1796875 83.81640625 C-331.58208621 149.41355312 -384.09388725 210.7963823 -421.7421875 259.59375 C-422.25523437 260.25890625 -422.76828125 260.9240625 -423.296875 261.609375 C-434.20838923 275.71597351 -445.62991699 289.4072205 -457.28759766 302.90087891 C-458.74449277 304.5964329 -460.18836229 306.30226026 -461.62890625 308.01171875 C-468.79811084 316.49774054 -476.30898002 324.6117581 -483.94238281 332.68066406 C-488.26052147 337.27059007 -492.49834821 341.93523202 -496.7421875 346.59375 C-489.44120203 342.20078416 -482.63381154 337.35012464 -475.8527832 332.20556641 C-471.59115972 328.97419803 -467.29547226 325.80780285 -462.9296875 322.71875 C-451.39218472 314.53906527 -440.04577452 306.09281618 -428.7421875 297.59375 C-416.37320971 288.293626 -403.92486836 279.10430334 -391.3125 270.13671875 C-378.48315144 261.01161872 -365.7853325 251.70794992 -353.12451172 242.35107422 C-350.772557 240.6161521 -348.41633911 238.88719856 -346.05859375 237.16015625 C-334.94462271 229.01222623 -323.96546592 220.69833676 -313.01708984 212.32958984 C-310.05913183 210.07255169 -307.09145586 207.82926089 -304.1171875 205.59375 C-302.76173828 204.55541016 -302.76173828 204.55541016 -301.37890625 203.49609375 C-298.7421875 201.59375 -298.7421875 201.59375 -295.82421875 199.91015625 C-287.06793998 194.60439489 -284.79732856 187.68326233 -281.72021484 178.44335938 C-279.82864693 172.93203119 -277.68189303 167.51752825 -275.5546875 162.09375 C-275.08804687 160.90233398 -274.62140625 159.71091797 -274.140625 158.48339844 C-264.29867019 133.63179574 -253.14145874 108.85903451 -236.7421875 87.59375 C-236.03835938 86.66691406 -235.33453125 85.74007812 -234.609375 84.78515625 C-223.10941084 70.16619812 -207.86711049 53.3687348 -188.7421875 49.59375 C-172.98949278 48.11644892 -172.98949278 48.11644892 -166.3515625 52.2578125 C-160.64766387 56.99260214 -157.12165905 61.79504003 -156.37109375 69.30859375 C-155.76470786 89.91348837 -165.41408278 106.48702472 -178.7421875 121.59375 C-179.39316406 122.35429687 -180.04414062 123.11484375 -180.71484375 123.8984375 C-190.60890394 135.22227517 -201.28460107 146.19919894 -213.125 155.484375 C-216.17790451 157.94492491 -219.05449722 160.55492458 -221.9296875 163.21875 C-222.43491943 163.68667969 -222.94015137 164.15460938 -223.46069336 164.63671875 C-223.95190674 165.09175781 -224.44312012 165.54679688 -224.94921875 166.015625 C-234.51350008 174.84419239 -234.51350008 174.84419239 -238.62402344 177.35180664 C-243.56818088 181.50868978 -244.17317625 188.08588265 -245.546875 194.09765625 C-245.8757275 195.45884484 -246.20675707 196.81950909 -246.53982544 198.17967224 C-247.41438086 201.77297389 -248.26286179 205.37190986 -249.1048584 208.97296143 C-250.43307894 214.63316836 -251.80065886 220.28410734 -253.16518593 225.93565178 C-253.50345155 227.33728094 -253.84100331 228.73908257 -254.17784691 230.14105415 C-258.8721327 249.65402331 -264.27566504 269.00632207 -270.6796875 288.03125 C-271.30399658 289.89160889 -271.30399658 289.89160889 -271.94091797 291.78955078 C-278.67758032 311.51998746 -287.30841101 330.53529069 -297.7421875 348.59375 C-297.113125 347.95308594 -296.4840625 347.31242187 -295.8359375 346.65234375 C-291.30675941 342.0754183 -286.75248816 337.61536261 -281.859375 333.4296875 C-279.33619295 331.2416883 -276.88664231 328.98081887 -274.4296875 326.71875 C-270.82827579 323.42942762 -267.16911475 320.27357364 -263.3671875 317.21875 C-258.5715826 313.35220816 -254.07340083 309.24523017 -249.58081055 305.0378418 C-245.36807627 301.11482276 -240.97814297 297.47471281 -236.48828125 293.87109375 C-233.47899698 291.37548531 -230.60280096 288.75609857 -227.7421875 286.09375 C-223.15461311 281.82454221 -218.40775746 277.83616261 -213.5234375 273.90625 C-210.50199562 271.3940399 -207.61776977 268.76974173 -204.7421875 266.09375 C-200.15458637 261.82456848 -195.40776022 257.83616483 -190.5234375 253.90625 C-186.96875169 250.95066854 -183.59873385 247.8219924 -180.21606445 244.6730957 C-177.04867328 241.74225201 -173.80121049 238.97347354 -170.4296875 236.28125 C-164.39617733 231.42820921 -158.81809175 226.13108038 -153.1875 220.82421875 C-150.05774755 217.8771334 -146.86445235 215.0189656 -143.609375 212.2109375 C-130.8354579 201.14733566 -118.53519077 189.56079278 -106.61035156 177.59228516 C-104.8507527 175.82726456 -103.08578353 174.06773867 -101.3203125 172.30859375 C-95.57875266 166.57040532 -90.00597868 160.77856703 -84.7421875 154.59375 C-83.12250933 152.81804779 -81.49807032 151.04666693 -79.8671875 149.28125 C-75.4280467 144.40219434 -71.1721283 139.41867862 -67.06591797 134.25634766 C-66.11794904 133.06570427 -65.16598883 131.87823439 -64.21142578 130.69287109 C-39.42296278 99.85558374 -9.24111271 59.44447232 -12.7421875 17.59375 C-13.87292057 12.19853793 -15.42199347 8.7672558 -19.5546875 5.09375 C-22.96252874 3.49006001 -26.08676415 2.4710516 -29.7421875 1.59375 C-29.7421875 0.27375 -29.7421875 -1.04625 -29.7421875 -2.40625 C-20.05479733 -6.38056391 -9.18755802 -4.71156822 0 0 Z " fill="#73308B" transform="translate(822.7421875,240.40625)"/>
<path d="M0 0 C16.19674494 11.95834439 25.42774317 31.12960203 28.921875 50.57421875 C29.37947346 54.76887127 29.3203125 59.00702389 29.3203125 63.2265625 C-7.9696875 63.2265625 -45.2596875 63.2265625 -83.6796875 63.2265625 C-80.30096085 102.78829835 -80.30096085 102.78829835 -58.2109375 134.46875 C-46.93289582 142.30072339 -34.25348177 143.57167857 -21.0546875 141.2265625 C-2.82641482 136.94688109 9.58965979 126.3566669 21.3203125 112.2265625 C24.7853125 115.1965625 24.7853125 115.1965625 28.3203125 118.2265625 C16.66455782 137.49929972 1.12387194 151.06168411 -20.8671875 157.1640625 C-41.02505604 161.16088126 -62.60602603 157.66304602 -80.2421875 147.1015625 C-100.52197037 133.43411058 -112.79559892 113.99054189 -117.6796875 90.2265625 C-121.40083114 65.17086196 -116.4979713 39.09538879 -101.6796875 18.2265625 C-76.23054171 -14.14505606 -35.12885861 -23.24854491 0 0 Z " fill="#732F8B" transform="translate(811.6796875,491.7734375)"/>
<path d="M0 0 C10.32118585 7.377166 14.66300736 17.53874818 17.66796875 29.55859375 C17.66796875 34.83859375 17.66796875 40.11859375 17.66796875 45.55859375 C-7.41203125 45.55859375 -32.49203125 45.55859375 -58.33203125 45.55859375 C-58.33203125 30.31041325 -54.22059174 16.43932319 -43.64453125 4.99609375 C-31.75229618 -5.87527174 -14.01933612 -8.6652178 0 0 Z " fill="#FEFEFE" transform="translate(788.33203125,495.44140625)"/>
<path d="M0 0 C4.39129262 2.2370736 7.07481842 4.44035941 9 9 C11.76267263 18.54923799 7.74602506 27.93317291 3.4375 36.4375 C-4.9136846 50.84329343 -17.09120795 64.53051232 -29.85546875 75.171875 C-32.76079643 77.64854777 -35.52486609 80.26744789 -38.3125 82.875 C-44.01248161 88.17942539 -49.90298658 93.153656 -56 98 C-57.66690615 99.33303393 -59.33360388 100.66632856 -61 102 C-58.26227518 90.17075157 -54.77594961 78.72306062 -50.8125 67.25 C-50.52720428 66.41915894 -50.24190857 65.58831787 -49.94796753 64.7322998 C-31.76217169 11.92307025 -31.76217169 11.92307025 -11 1 C-7.27148658 -0.24283781 -3.87253239 -0.5280726 0 0 Z " fill="#FEFEFE" transform="translate(645,300)"/>
<path d="M0 0 C1.32 0.33 2.64 0.66 4 1 C4.06445312 2.02609375 4.12890625 3.0521875 4.1953125 4.109375 C5.11902044 8.57545804 6.88388792 10.98401835 9.875 14.25 C10.39022217 14.83281738 10.90544434 15.41563477 11.4362793 16.01611328 C17.11694443 22.33342588 23.17127105 28.30493752 29.23583984 34.25097656 C33.48857808 38.42671412 37.56827105 42.65901411 41.42553711 47.20458984 C43.12317358 49.14045876 44.91320986 50.94635495 46.75 52.75 C51.72783505 57.69420103 51.72783505 57.69420103 53 60 C52.5625 62.11328125 52.5625 62.11328125 52 64 C49.64556385 63.73137306 47.29142739 63.46053348 44.9375 63.1875 C43.82217896 63.05819092 43.82217896 63.05819092 42.68432617 62.92626953 C38.10454699 62.38758182 33.53150128 61.81138673 28.9609375 61.19921875 C27.94136963 61.06298096 26.92180176 60.92674316 25.87133789 60.78637695 C23.8622511 60.51617891 21.85360474 60.24268145 19.84545898 59.96557617 C15.19390432 59.34068049 10.70700679 58.82595941 6 59 C6.56847656 59.556875 7.13695312 60.11375 7.72265625 60.6875 C11.3972235 64.31912573 15.02157943 67.94227807 18.375 71.875 C22.15544439 76.29289637 26.29459348 80.32611611 30.44921875 84.38671875 C37 91.09800919 37 91.09800919 37 96 C30.38532991 96.11397352 24.00589171 95.69308434 17.4375 94.94140625 C16.44733887 94.8327977 15.45717773 94.72418915 14.43701172 94.61228943 C11.29081193 94.26696011 8.14535324 93.91545111 5 93.5625 C-11.85522024 91.65484007 -11.85522024 91.65484007 -28.75 90.15234375 C-30.72226562 89.99560181 -30.72226562 89.99560181 -32.734375 89.83569336 C-36.34445498 90.01733091 -37.35014604 90.69368708 -40 93 C-40.99 93 -41.98 93 -43 93 C-42.4943565 87.46640844 -41.04383132 83.43969425 -38.4375 78.5625 C-37.9434668 77.60827148 -37.9434668 77.60827148 -37.43945312 76.63476562 C-36.63546752 75.08505424 -35.81902334 73.54181678 -35 72 C-33.68 72 -32.36 72 -31 72 C-31 73.98 -31 75.96 -31 78 C-24.84154486 79.5071485 -18.78505118 80.47594184 -12.4765625 81.0703125 C-11.60857025 81.15626678 -10.740578 81.24222107 -9.84628296 81.33078003 C-8.02977049 81.50969588 -6.21300189 81.68602895 -4.39599609 81.85986328 C-1.61108824 82.12633112 1.17299572 82.40036181 3.95703125 82.67578125 C5.72912424 82.84939191 7.5012583 83.02258407 9.2734375 83.1953125 C10.10467133 83.27653351 10.93590515 83.35775452 11.79232788 83.44143677 C14.87368652 83.73548364 17.90265915 84 21 84 C17.93195476 80.58132101 14.83364739 77.19361601 11.703125 73.83203125 C10.54747065 72.58890764 9.39657282 71.34134846 8.25 70.08984375 C6.47755837 68.16581172 4.67976568 66.26869473 2.875 64.375 C2.32634277 63.77155762 1.77768555 63.16811523 1.21240234 62.54638672 C-3.10431194 58.09235133 -6.90733618 56.76954199 -13 56 C-13.77174561 55.89139648 -14.54349121 55.78279297 -15.33862305 55.67089844 C-17.22235192 55.42025848 -19.11087761 55.20608608 -21 55 C-21.66 56.32 -22.32 57.64 -23 59 C-24.32 58.67 -25.64 58.34 -27 58 C-26.35014905 53.28629244 -24.48438608 49.42313556 -22.4375 45.1875 C-22.10814453 44.49462891 -21.77878906 43.80175781 -21.43945312 43.08789062 C-20.63127749 41.38955052 -19.81631623 39.69444231 -19 38 C-17.35 38.33 -15.7 38.66 -14 39 C-14 40.98 -14 42.96 -14 45 C-8.82687091 45.69844747 -3.65311439 46.39198912 1.52124023 47.08129883 C3.27564561 47.31568006 5.02988301 47.5513227 6.78393555 47.78833008 C16.84664316 49.1470685 26.85893556 50.39234327 37 51 C32.42083962 46.3445952 27.82981661 41.70113466 23.23046875 37.06567383 C21.66815889 35.48830439 20.10855561 33.90824932 18.55175781 32.32543945 C16.3098527 30.04702822 14.0582994 27.77854404 11.8046875 25.51171875 C11.1138205 24.80536789 10.42295349 24.09901703 9.71115112 23.3712616 C6.02444286 19.68328805 2.84114861 16.98585892 -2 15 C-2.66 16.65 -3.32 18.3 -4 20 C-5.32 19.34 -6.64 18.68 -8 18 C-7.39733215 13.49272353 -5.63400206 10.1412037 -3.4375 6.1875 C-3.10814453 5.59001953 -2.77878906 4.99253906 -2.43945312 4.37695312 C-1.63226733 2.91466002 -0.81695083 1.4568601 0 0 Z " fill="#73308B" transform="translate(80,234)"/>
<path d="M0 0 C3.879285 2.90946375 6.61230726 6.25399586 8.9375 10.5 C10.95142236 13.56116198 13.38839103 15.00803462 16.5 16.875 C16.17 19.185 15.84 21.495 15.5 23.875 C11.09885603 23.37201212 8.78804981 21.78727269 5.5 18.875 C5.479375 19.57625 5.45875 20.2775 5.4375 21 C3.80827775 25.99628158 -0.41733271 28.63665729 -4.8125 31.25 C-13.97023146 33.37970499 -21.81504988 30.92426148 -30.5 27.875 C-29.15313864 32.07575138 -27.47971922 34.06862447 -24.0625 36.8125 C-19.48448592 40.73546062 -16.87694592 43.79660834 -16.125 49.9375 C-16.56492245 53.38355919 -17.35989431 55.14452033 -19.5 57.875 C-26.00112929 62.54247744 -32.73421768 62.39605894 -40.5 61.875 C-47.56707622 60.64594327 -52.73375323 56.02689744 -57.5 50.875 C-60.09002256 46.72768539 -60.20475051 42.63843418 -59.5 37.875 C-57.38608123 34.37609996 -56.38263941 33.16921314 -52.5 31.875 C-51.00225982 31.78274789 -49.50057026 31.7449981 -48 31.75 C-47.2265625 31.74742187 -46.453125 31.74484375 -45.65625 31.7421875 C-43.5 31.875 -43.5 31.875 -40.5 32.875 C-40.726875 31.8025 -40.95375 30.73 -41.1875 29.625 C-41.5 25.875 -41.5 25.875 -40.34375 23.625 C-38.5 21.875 -38.5 21.875 -36.01953125 21.703125 C-35.12621094 21.84234375 -34.23289062 21.9815625 -33.3125 22.125 C-32.41144531 22.25390625 -31.51039063 22.3828125 -30.58203125 22.515625 C-29.89496094 22.63421875 -29.20789063 22.7528125 -28.5 22.875 C-28.83 21.885 -29.16 20.895 -29.5 19.875 C-30.08738515 13.88367146 -28.80397394 9.78284478 -25.5 4.875 C-18.25120457 -2.01135566 -9.49130549 -3.05077676 0 0 Z " fill="#732F8B" transform="translate(833.5,161.125)"/>
<path d="M0 0 C3.25282007 0.91857045 6.24802639 0.84653834 9.6015625 0.671875 C10.4678125 0.66800781 10.4678125 0.66800781 11.3515625 0.6640625 C12.3515625 1.6640625 12.3515625 1.6640625 12.4140625 4.7265625 C12.3934375 5.6959375 12.3728125 6.6653125 12.3515625 7.6640625 C9.3815625 7.6640625 6.4115625 7.6640625 3.3515625 7.6640625 C3.8465625 9.1490625 3.8465625 9.1490625 4.3515625 10.6640625 C5.15002172 17.0859559 4.5829186 21.69554673 0.75390625 26.98828125 C-3.84991786 32.48978694 -10.07729529 35.08216443 -16.6484375 37.6640625 C-17.3084375 37.6640625 -17.9684375 37.6640625 -18.6484375 37.6640625 C-18.6484375 38.6540625 -18.6484375 39.6440625 -18.6484375 40.6640625 C-17.58625 40.68984375 -16.5240625 40.715625 -15.4296875 40.7421875 C-1.13631914 41.25230299 -1.13631914 41.25230299 5.3515625 45.6640625 C8.05671339 49.72178883 7.9910114 52.90098797 7.3515625 57.6640625 C4.25385066 64.11762884 -1.87108503 69.73287929 -8.4609375 72.6015625 C-14.57748241 74.54007378 -21.56418953 74.76590398 -27.5859375 72.4140625 C-32.91433345 69.36926481 -32.91433345 69.36926481 -34.6484375 66.6640625 C-35.26836015 63.21354961 -35.2976738 60.11173111 -34.6484375 56.6640625 C-31.89345195 52.96451048 -28.67737155 50.85119813 -24.6484375 48.6640625 C-25.3084375 48.1484375 -25.9684375 47.6328125 -26.6484375 47.1015625 C-29.30481293 43.86410495 -28.96185882 41.73853969 -28.6484375 37.6640625 C-22.8984375 34.6640625 -22.8984375 34.6640625 -20.6484375 34.6640625 C-20.6484375 34.0040625 -20.6484375 33.3440625 -20.6484375 32.6640625 C-21.2259375 32.4371875 -21.8034375 32.2103125 -22.3984375 31.9765625 C-26.20927524 29.75357382 -28.26773414 26.80617258 -29.6484375 22.6640625 C-30.4310448 16.15944119 -29.50376057 11.01867788 -25.6484375 5.6640625 C-17.90263039 -2.61403942 -10.53220681 -3.87266711 0 0 Z " fill="#732F8B" transform="translate(541.6484375,26.3359375)"/>
<path d="M0 0 C0.495 8.91 0.495 8.91 1 18 C-3 17 -3 17 -4.484375 14.93359375 C-4.90203125 14.10988281 -5.3196875 13.28617188 -5.75 12.4375 C-6.17796875 11.61121094 -6.6059375 10.78492188 -7.046875 9.93359375 C-7.36140625 9.29550781 -7.6759375 8.65742188 -8 8 C-15.61610975 7.61274018 -22.72357223 8.63949218 -30 11 C-31.40305736 13.80611472 -30.66161338 15.39740142 -30.00390625 18.4453125 C-29.66069336 20.05986328 -29.66069336 20.05986328 -29.31054688 21.70703125 C-29.06369141 22.83496094 -28.81683594 23.96289062 -28.5625 25.125 C-28.31951172 26.26066406 -28.07652344 27.39632813 -27.82617188 28.56640625 C-27.22348154 31.37896117 -26.61450812 34.19000762 -26 37 C-15.13159616 35.76402274 -15.13159616 35.76402274 -5 32 C-3.85968434 28.92202417 -3.85968434 28.92202417 -4 26 C-2.0625 25.4375 -2.0625 25.4375 0 25 C1.88213027 26.88213027 1.65651292 30.03196625 2 32.5625 C2.17273438 33.82449219 2.34546875 35.08648437 2.5234375 36.38671875 C3.03376108 40.25597537 3.5350051 44.12504252 4 48 C2.35 47.67 0.7 47.34 -1 47 C-1.66 45.02 -2.32 43.04 -3 41 C-5.5627992 41.31018604 -8.1252211 41.62306891 -10.6875 41.9375 C-11.7693457 42.06801758 -11.7693457 42.06801758 -12.87304688 42.20117188 C-16.62010584 42.66313805 -20.30792911 43.19167679 -24 44 C-24.50510495 52.25004758 -23.64216625 63.03675063 -19 70 C-6.17435008 69.38507479 -6.17435008 69.38507479 5.4375 64.375 C7.75606073 60.85078769 8.8608672 57.03874356 10 53 C11.32 53.33 12.64 53.66 14 54 C14.05397335 56.4377963 14.09365616 58.87439685 14.125 61.3125 C14.14175781 62.00279297 14.15851563 62.69308594 14.17578125 63.40429688 C14.21217794 67.17135396 14.14378864 68.78431704 12 72 C9.24055898 72.74714039 6.61642615 73.31263266 3.80859375 73.7890625 C2.989319 73.9378183 2.17004425 74.0865741 1.32594299 74.23983765 C-1.3015649 74.71347639 -3.93187201 75.16904693 -6.5625 75.625 C-8.3081408 75.93900493 -10.05358643 76.2540969 -11.79882812 76.5703125 C-13.49201333 76.87337055 -15.18536809 77.17548308 -16.87890625 77.4765625 C-18.04662315 77.68437851 -18.04662315 77.68437851 -19.2379303 77.89639282 C-24.47835791 78.80301891 -29.70949387 79.45507491 -35 80 C-35.33 78.68 -35.66 77.36 -36 76 C-35.3392749 75.6071582 -34.6785498 75.21431641 -33.99780273 74.80957031 C-31.78158685 73.19446395 -31.78158685 73.19446395 -31.70727539 70.77636719 C-31.86957642 69.42526855 -31.86957642 69.42526855 -32.03515625 68.046875 C-32.16293457 66.97630859 -32.29071289 65.90574219 -32.42236328 64.80273438 C-33.48548834 57.80390265 -34.67737588 50.8340987 -35.95629883 43.87158203 C-36.43890636 41.24233815 -36.91249482 38.61158699 -37.38476562 35.98046875 C-37.69218393 34.28375907 -38.000109 32.58714111 -38.30859375 30.890625 C-38.44825058 30.11648254 -38.58790741 29.34234009 -38.73179626 28.54473877 C-39.63655429 23.63963847 -40.74644065 18.82806861 -42 14 C-44.31 13.34 -46.62 12.68 -49 12 C-49 10.68 -49 9.36 -49 8 C-47.05673828 7.63648438 -47.05673828 7.63648438 -45.07421875 7.265625 C-43.27857607 6.92745357 -41.48300886 6.58888123 -39.6875 6.25 C-38.27162598 5.98364746 -38.27162598 5.98364746 -36.82714844 5.71191406 C-32.10114326 4.81405198 -27.38842623 3.8834066 -22.69140625 2.84375 C-21.85843018 2.66038086 -21.0254541 2.47701172 -20.16723633 2.28808594 C-18.60403993 1.94011252 -17.04251567 1.58450124 -15.4831543 1.21972656 C-10.0028507 0.00310528 -5.86693668 0 0 0 Z " fill="#732F8B" transform="translate(438,0)"/>
<path d="M0 0 C5.91315004 0.50324681 11.36513001 2.19729512 17 4 C17 5.32 17 6.64 17 8 C16.32453125 8.03738281 15.6490625 8.07476562 14.953125 8.11328125 C14.06109375 8.17902344 13.1690625 8.24476563 12.25 8.3125 C11.36828125 8.37050781 10.4865625 8.42851562 9.578125 8.48828125 C6.45393403 9.10838582 5.17640425 9.6547368 3 12 C2.0654496 14.69692786 1.3543011 17.17108883 0.75 19.9375 C0.57726563 20.65357422 0.40453125 21.36964844 0.2265625 22.10742188 C-0.56975303 25.51704273 -1 28.48131547 -1 32 C2.95350825 33.0606106 6.91335381 34.0952418 10.875 35.125 C12.00292969 35.42792969 13.13085938 35.73085938 14.29296875 36.04296875 C15.36933594 36.32011719 16.44570313 36.59726562 17.5546875 36.8828125 C18.54968262 37.14465332 19.54467773 37.40649414 20.56982422 37.67626953 C21.37178223 37.78310059 22.17374023 37.88993164 23 38 C27.34563321 33.65436679 28.05942873 24.90046001 28.5 18.875 C28.29410316 15.77857619 28.29410316 15.77857619 25.5 14.0625 C24.675 13.711875 23.85 13.36125 23 13 C23.33 11.68 23.66 10.36 24 9 C25.08539063 9.27714844 26.17078125 9.55429687 27.2890625 9.83984375 C28.73434281 10.2058563 30.17965712 10.5717346 31.625 10.9375 C32.33785156 11.11990234 33.05070312 11.30230469 33.78515625 11.49023438 C37.83969313 12.51316799 41.85947059 13.37957367 46 14 C46 15.32 46 16.64 46 18 C45.07767578 18.09474609 45.07767578 18.09474609 44.13671875 18.19140625 C41.59709153 18.57619825 39.38724284 19.04425331 37 20 C35.36034708 22.64460148 34.70133311 24.10417297 34 27 C33.79890625 27.680625 33.5978125 28.36125 33.390625 29.0625 C32.34384828 32.79694668 31.91329185 36.1448224 32 40 C34.85120792 40.84480235 37.70527344 41.67601416 40.5625 42.5 C41.36236328 42.73847656 42.16222656 42.97695313 42.98632812 43.22265625 C47.83294329 44.60740344 51.960647 45.27056929 57 45 C57.65043719 43.27255984 58.29514844 41.5429631 58.9375 39.8125 C59.29714844 38.84957031 59.65679687 37.88664062 60.02734375 36.89453125 C62.08442577 30.77285342 63.38991012 24.29189239 60.8125 18.1875 C59.0787511 15.83901454 59.0787511 15.83901454 56.3125 14.4375 C55.549375 13.963125 54.78625 13.48875 54 13 C54 11.68 54 10.36 54 9 C59.95922592 9.38037612 65.37530719 11.07000353 70 15 C71.45760038 19.40326145 70.5793694 22.69069592 69.41796875 27.1015625 C69.15660881 28.11722794 69.15660881 28.11722794 68.88996887 29.15341187 C68.33250068 31.31336252 67.76084699 33.4692153 67.1875 35.625 C66.44632413 38.44910798 65.71140834 41.27478872 64.98046875 44.1015625 C64.71591385 45.12071747 64.71591385 45.12071747 64.4460144 46.16046143 C63.02066847 51.73156934 61.90037433 57.32211378 61 63 C59.515 63.495 59.515 63.495 58 64 C57.34 63.67 56.68 63.34 56 63 C55.375 59.9375 55.375 59.9375 55 57 C44.13061233 54.27210347 33.25530832 51.56915826 22.36938477 48.90795898 C20.73168508 48.50696014 19.09432078 48.10458938 17.45727539 47.70092773 C15.04390851 47.10599143 12.62950594 46.5154353 10.21484375 45.92578125 C9.49183578 45.74662674 8.76882782 45.56747223 8.02391052 45.38288879 C3.69537849 44.33186243 -0.58052723 43.56178208 -5 43 C-5.99 45.475 -5.99 45.475 -7 48 C-8.65 47.67 -10.3 47.34 -12 47 C-11.68869141 45.78957031 -11.68869141 45.78957031 -11.37109375 44.5546875 C-9.57708463 37.4837394 -7.85083841 30.40142543 -6.2109375 23.29296875 C-6.05514725 22.61888977 -5.89935699 21.94481079 -5.73884583 21.25030518 C-4.94591488 17.81689508 -4.15750397 14.38252299 -3.37475586 10.94677734 C-2.93595093 9.0414624 -2.93595093 9.0414624 -2.48828125 7.09765625 C-2.22571533 5.94789307 -1.96314941 4.79812988 -1.69262695 3.61352539 C-1 1 -1 1 0 0 Z " fill="#73308B" transform="translate(23,369)"/>
<path d="M0 0 C6.11386163 -0.39873011 11.26298451 0.87884293 17 3 C18 4 18 4 18.12025452 5.94252014 C18.11803391 6.79301437 18.11581329 7.64350861 18.11352539 8.51977539 C18.11341209 9.96115623 18.11341209 9.96115623 18.11329651 11.43165588 C18.10813522 12.476436 18.10297394 13.52121613 18.09765625 14.59765625 C18.0962413 15.66165146 18.09482635 16.72564667 18.09336853 17.82188416 C18.08775064 21.23545083 18.07519511 24.648953 18.0625 28.0625 C18.05748731 30.37044176 18.052924 32.67838455 18.04882812 34.98632812 C18.0377754 40.65757426 18.02101987 46.32878253 18 52 C16.35 52.33 14.7 52.66 13 53 C12.01 50.525 12.01 50.525 11 48 C4.25170225 46.97138288 -2.33743674 46.87023686 -9.15625 46.90234375 C-10.87056213 46.90446617 -10.87056213 46.90446617 -12.61950684 46.90663147 C-16.24636525 46.91219975 -19.87316045 46.92474638 -23.5 46.9375 C-25.9687491 46.9425191 -28.43749918 46.94708129 -30.90625 46.95117188 C-36.93752133 46.96215879 -42.96875615 46.97886515 -49 47 C-49.99 48.98 -50.98 50.96 -52 53 C-53.32 53 -54.64 53 -56 53 C-56.02529479 46.20069165 -56.04284349 39.40139537 -56.05493164 32.60205078 C-56.05996943 30.28759304 -56.06679981 27.9731385 -56.07543945 25.65869141 C-56.08752924 22.3375571 -56.09323375 19.01646475 -56.09765625 15.6953125 C-56.10281754 14.65569366 -56.10797882 13.61607483 -56.11329651 12.54495239 C-56.11337204 11.58410736 -56.11344757 10.62326233 -56.11352539 9.63330078 C-56.115746 8.78502716 -56.11796661 7.93675354 -56.12025452 7.06277466 C-56 5 -56 5 -55 3 C-49.06 3.66 -43.12 4.32 -37 5 C-37.33 6.32 -37.66 7.64 -38 9 C-40.51919928 9.99079619 -43.00383471 10.45114872 -45.65234375 10.99609375 C-48.12998689 11.80050811 -48.12998689 11.80050811 -49.30859375 13.984375 C-50.29466636 18.28521147 -50.20953979 22.41830139 -50.125 26.8125 C-50.08375 29.844375 -50.0425 32.87625 -50 36 C-41.09 35.67 -32.18 35.34 -23 35 C-22.979375 32.091875 -22.95875 29.18375 -22.9375 26.1875 C-22.928396 25.27508545 -22.91929199 24.3626709 -22.90991211 23.42260742 C-22.90741455 22.69920166 -22.90491699 21.9757959 -22.90234375 21.23046875 C-22.89710693 20.49207764 -22.89187012 19.75368652 -22.88647461 18.99291992 C-22.92476787 16.78942591 -22.92476787 16.78942591 -24 14 C-27.00007271 12.29144978 -27.00007271 12.29144978 -30 11 C-30 9.68 -30 8.36 -30 7 C-22.41 7.33 -14.82 7.66 -7 8 C-7 9.32 -7 10.64 -7 12 C-7.56589844 12.14695312 -8.13179687 12.29390625 -8.71484375 12.4453125 C-9.81505859 12.78175781 -9.81505859 12.78175781 -10.9375 13.125 C-11.66839844 13.33382813 -12.39929687 13.54265625 -13.15234375 13.7578125 C-15.28093138 14.89955458 -15.28093138 14.89955458 -15.75 17.65625 C-16.01833995 21.24529679 -16.0964531 24.77597169 -16.0625 28.375 C-16.05347656 29.62023437 -16.04445312 30.86546875 -16.03515625 32.1484375 C-16.02355469 33.08945312 -16.01195312 34.03046875 -16 35 C-11.38519783 36.53826739 -6.77112314 36.22544826 -1.9375 36.25 C-0.91849609 36.270625 0.10050781 36.29125 1.15039062 36.3125 C2.60928711 36.32023438 2.60928711 36.32023438 4.09765625 36.328125 C4.98976807 36.3374707 5.88187988 36.34681641 6.80102539 36.35644531 C7.52668701 36.23881836 8.25234863 36.12119141 9 36 C11.82184788 31.76722818 11.36788376 28.16531205 11.375 23.1875 C11.41173828 21.85235352 11.41173828 21.85235352 11.44921875 20.49023438 C11.47433387 14.8435176 10.91216258 11.389087 7 7 C5.16775053 5.70754973 5.16775053 5.70754973 3.25 5.125 C2.1775 4.75375 1.105 4.3825 0 4 C0 2.68 0 1.36 0 0 Z " fill="#75328C" transform="translate(56,497)"/>
<path d="M0 0 C6.08233706 0.67581523 12.01314152 1.73638028 18 3 C17.67 4.32 17.34 5.64 17 7 C15.96939453 7.12955078 15.96939453 7.12955078 14.91796875 7.26171875 C13.56638672 7.47248047 13.56638672 7.47248047 12.1875 7.6875 C11.29417969 7.81511719 10.40085937 7.94273437 9.48046875 8.07421875 C6.88185883 8.82370288 6.88185883 8.82370288 5.25 10.96875 C3.50633262 15.19714339 3.18085582 19.28070962 2.8125 23.8125 C2.73064453 24.69615234 2.64878906 25.57980469 2.56445312 26.49023438 C2.36514644 28.65916005 2.18105463 30.82947449 2 33 C2.56920166 33.05534912 3.13840332 33.11069824 3.72485352 33.16772461 C6.33756224 33.42270715 8.95002968 33.68008678 11.5625 33.9375 C12.45775391 34.02451172 13.35300781 34.11152344 14.27539062 34.20117188 C19.20552409 34.68876749 24.10211759 35.2542319 29 36 C29.67666073 30.53838128 30.14727598 25.06136526 30.375 19.5625 C30.42398438 18.57378906 30.47296875 17.58507812 30.5234375 16.56640625 C30.35070313 15.71949219 30.17796875 14.87257813 30 14 C28.35781368 12.96028761 26.69132422 11.95770567 25 11 C25 9.68 25 8.36 25 7 C25.87398437 7.09087891 25.87398437 7.09087891 26.765625 7.18359375 C33.50409957 7.87227433 40.24850516 8.45477619 47 9 C47 10.65 47 12.3 47 14 C44.36 14.66 41.72 15.32 39 16 C36.72005699 22.83982904 35.92951016 29.87045933 35 37 C48.00523478 39.37746188 48.00523478 39.37746188 61 39 C65.1821421 32.72678684 65.74891695 23.26455045 64.609375 15.87109375 C63.28409669 11.8018097 60.26412214 9.71747473 56.6875 7.6875 C56.130625 7.460625 55.57375 7.23375 55 7 C55 5.68 55 4.36 55 3 C61.21773909 3.28785829 66.88098267 4.21297188 72 8 C73.18597809 11.55793427 72.81338543 13.58928869 72.29296875 17.29296875 C72.11926758 18.5567334 71.94556641 19.82049805 71.76660156 21.12255859 C71.57364686 22.47755034 71.38061168 23.83253062 71.1875 25.1875 C70.997615 26.55539638 70.80848754 27.92339813 70.62011719 29.29150391 C70.25017749 31.97672477 69.87763998 34.6615643 69.50341797 37.34619141 C68.88267378 41.85155392 68.30330394 46.3609217 67.75 50.875 C67.60046875 52.08929688 67.4509375 53.30359375 67.296875 54.5546875 C67.19890625 55.36164063 67.1009375 56.16859375 67 57 C65.35 56.67 63.7 56.34 62 56 C61.505 54.02 61.505 54.02 61 52 C51.01343914 49.38725679 41.02444095 47.90790943 30.79614258 46.63745117 C28.17343854 46.3107484 25.55256588 45.97150884 22.93164062 45.63085938 C21.23967721 45.41592637 19.5476228 45.20170823 17.85546875 44.98828125 C16.69896065 44.83834465 16.69896065 44.83834465 15.51908875 44.68537903 C10.64174693 44.08799938 5.91414041 43.91193047 1 44 C0.01 46.475 0.01 46.475 -1 49 C-2.65 49 -4.3 49 -6 49 C-5.32150358 37.23159656 -3.7949286 25.5617099 -2.34375 13.86914062 C-2.02412486 11.20136033 -1.74222866 8.53220164 -1.46875 5.859375 C-1 2 -1 2 0 0 Z " fill="#732F8B" transform="translate(8,434)"/>
<path d="M0 0 C1.67239157 1.59512758 3.32690904 3.20935617 4.95703125 4.84765625 C7.13320078 6.72632427 7.13320078 6.72632427 9.78515625 6.18359375 C10.59726563 5.93738281 11.409375 5.69117188 12.24609375 5.4375 C13.56609375 5.4375 14.88609375 5.4375 16.24609375 5.4375 C16.74109375 6.9225 16.74109375 6.9225 17.24609375 8.4375 C15.48046875 11.06640625 15.48046875 11.06640625 12.99609375 14 C12.1865625 14.97066406 11.37703125 15.94132812 10.54296875 16.94140625 C8.24609375 19.4375 8.24609375 19.4375 5.24609375 21.4375 C4.96765625 20.84324219 4.68921875 20.24898437 4.40234375 19.63671875 C-0.25488168 10.77855011 -9.68516016 2.3453728 -18.75390625 -1.5625 C-21.95099184 -1.48814917 -23.202419 -1.09429128 -25.50390625 1.125 C-27.10040403 4.0785209 -27.75390625 6.05885174 -27.75390625 9.4375 C-26.14632562 11.48855115 -24.73716568 12.79126504 -22.75390625 14.4375 C-21.08700161 15.97890936 -19.4203556 17.52059843 -17.75390625 19.0625 C-14.58382102 21.96510929 -11.5060958 24.33359372 -7.75390625 26.4375 C-6.76390625 25.7775 -5.77390625 25.1175 -4.75390625 24.4375 C-2.56640625 24.8125 -2.56640625 24.8125 -0.75390625 25.4375 C-1.24904643 29.77787775 -4.06504497 32.52362375 -6.81640625 35.6875 C-7.28884766 36.24179688 -7.76128906 36.79609375 -8.24804688 37.3671875 C-9.41049592 38.729249 -10.5813848 40.08409956 -11.75390625 41.4375 C-13.07390625 41.1075 -14.39390625 40.7775 -15.75390625 40.4375 C-15.61597656 39.42171875 -15.47804687 38.4059375 -15.3359375 37.359375 C-15.91813478 31.89651458 -18.39574858 30.12287365 -22.44140625 26.6875 C-23.06724609 26.12417969 -23.69308594 25.56085938 -24.33789062 24.98046875 C-30.30754802 19.40431322 -30.30754802 19.40431322 -37.87890625 17.4375 C-40.86435799 18.21225693 -40.86435799 18.21225693 -42.62890625 20.5625 C-44.05241895 24.20036579 -44.20062281 26.54527513 -43.75390625 30.4375 C-41.89610149 32.70714821 -40.34832518 34.30171849 -38.12890625 36.125 C-37.60683594 36.58455078 -37.08476562 37.04410156 -36.546875 37.51757812 C-33.14652925 40.46034648 -29.63793669 43.15563212 -25.75390625 45.4375 C-22.4674816 45.30884188 -22.4674816 45.30884188 -19.75390625 44.4375 C-19.09390625 45.4275 -18.43390625 46.4175 -17.75390625 47.4375 C-18.30820313 48.12457031 -18.8625 48.81164062 -19.43359375 49.51953125 C-20.15804687 50.42058594 -20.8825 51.32164062 -21.62890625 52.25 C-22.34820312 53.14332031 -23.0675 54.03664063 -23.80859375 54.95703125 C-25.83331331 57.47320953 -25.83331331 57.47320953 -27.75390625 60.4375 C-29.07390625 60.1075 -30.39390625 59.7775 -31.75390625 59.4375 C-31.89828125 58.468125 -32.04265625 57.49875 -32.19140625 56.5 C-33.82272216 50.78460952 -38.44064379 47.25387462 -42.75390625 43.4375 C-43.46675781 42.79683594 -44.17960938 42.15617187 -44.9140625 41.49609375 C-48.99319047 38.04635061 -48.99319047 38.04635061 -54.19140625 37.625 C-55.03703125 37.893125 -55.88265625 38.16125 -56.75390625 38.4375 C-57.75390625 37.4375 -57.75390625 37.4375 -57.88671875 34.56640625 C-57.88414062 33.38949219 -57.8815625 32.21257812 -57.87890625 31 C-57.88148438 29.82566406 -57.8840625 28.65132812 -57.88671875 27.44140625 C-57.75390625 24.4375 -57.75390625 24.4375 -56.75390625 22.4375 C-52.00390625 23.1875 -52.00390625 23.1875 -49.75390625 25.4375 C-49.58375 24.54546875 -49.41359375 23.6534375 -49.23828125 22.734375 C-48.87476563 20.97867188 -48.87476563 20.97867188 -48.50390625 19.1875 C-48.271875 18.02734375 -48.03984375 16.8671875 -47.80078125 15.671875 C-46.65146305 12.12099638 -45.72532402 10.65560059 -42.75390625 8.4375 C-40.17578125 7.609375 -40.17578125 7.609375 -37.50390625 7.1875 C-36.611875 7.03796875 -35.71984375 6.8884375 -34.80078125 6.734375 C-33.78757813 6.58742187 -33.78757813 6.58742187 -32.75390625 6.4375 C-32.59535156 5.55707031 -32.43679687 4.67664063 -32.2734375 3.76953125 C-29.89932714 -8.04855403 -29.89932714 -8.04855403 -24.75390625 -11.5625 C-16.14111106 -15.8688976 -5.65832316 -5.26504964 0 0 Z " fill="#73308B" transform="translate(196.75390625,176.5625)"/>
<path d="M0 0 C4.68254873 3.91303897 8.14019304 8.71906872 9.234375 14.8046875 C9.56291 21.13530429 8.49162135 26.87038447 5.109375 32.2421875 C-0.48968514 37.35437285 -5.58921225 39.59499621 -13.24609375 39.25390625 C-20.68641407 38.1119036 -27.44489599 34.21206657 -32.01953125 28.2265625 C-35.94014249 21.72408531 -35.84651831 13.93219994 -34.29296875 6.65234375 C-32.63158343 2.10591805 -29.69795419 -0.48605247 -25.765625 -3.1328125 C-16.86708367 -6.97139896 -7.87887538 -5.2442196 0 0 Z " fill="#73308B" transform="translate(147.765625,231.1328125)"/>
<path d="M0 0 C5.01201227 2.7194929 7.15016029 5.31636437 9.5625 10.4375 C9.85133057 11.0449707 10.14016113 11.65244141 10.43774414 12.27832031 C18 28.4697063 18 28.4697063 18 33 C19.98 32.34 21.96 31.68 24 31 C25 32 25 32 25.0625 34.5625 C25.041875 35.366875 25.02125 36.17125 25 37 C22.56686628 38.03251062 20.12943108 39.05119521 17.6875 40.0625 C16.99720703 40.35705078 16.30691406 40.65160156 15.59570312 40.95507812 C10.33984375 43.11328125 10.33984375 43.11328125 7 42 C7.23074219 40.71738281 7.46148437 39.43476562 7.69921875 38.11328125 C8.31548531 32.52309776 6.8654678 28.33420456 4.8125 23.1875 C4.35520508 21.93936523 4.35520508 21.93936523 3.88867188 20.66601562 C2.23642395 16.34661695 0.80455395 12.86298426 -3 10 C-6.13184156 9.38724839 -8.00667054 9.34756315 -10.71875 11.12890625 C-12.20077734 12.35577322 -13.60679031 13.67313363 -15 15 C-14.00360015 20.47316503 -12.20364551 25.53086099 -10.3125 30.75 C-9.98572266 31.72066406 -9.65894531 32.69132812 -9.32226562 33.69140625 C-8.37053749 36.2936457 -7.46668259 38.64818 -6 41 C-2.8765846 42.32040849 -2.8765846 42.32040849 0 42 C0.33 43.32 0.66 44.64 1 46 C-4.94 48.31 -10.88 50.62 -17 53 C-17.33 51.35 -17.66 49.7 -18 48 C-17.34 47.34 -16.68 46.68 -16 46 C-16.94860085 39.12264387 -19.45161867 32.84204656 -21.96679688 26.40966797 C-24 21.18985822 -24 21.18985822 -24 19 C-25.98 19 -27.96 19 -30 19 C-30.69921875 17.296875 -30.69921875 17.296875 -31 15 C-29.70703125 12.640625 -29.70703125 12.640625 -27.8125 10.25 C-26.89404297 9.05117188 -26.89404297 9.05117188 -25.95703125 7.828125 C-24 6 -24 6 -20 6 C-19.67 7.65 -19.34 9.3 -19 11 C-18.29875 10.278125 -17.5975 9.55625 -16.875 8.8125 C-7.35526316 -0.70723684 -7.35526316 -0.70723684 0 0 Z " fill="#73308B" transform="translate(349,52)"/>
<path d="M0 0 C2.36120297 0.25392418 4.7150539 0.57798123 7.0625 0.9375 C8.35285156 1.13214844 9.64320313 1.32679687 10.97265625 1.52734375 C11.97167969 1.68332031 12.97070312 1.83929688 14 2 C13.42415568 4.38564077 12.77772405 6.66682784 12 9 C13.33804688 9.23783203 13.33804688 9.23783203 14.703125 9.48046875 C16.45882812 9.83044922 16.45882812 9.83044922 18.25 10.1875 C19.41015625 10.40792969 20.5703125 10.62835938 21.765625 10.85546875 C25.62491073 12.22113387 26.89621443 13.52748647 29 17 C30.24191988 21.46481625 29.69376019 25.48392341 27.77734375 29.671875 C23.81400223 36.15563937 18.89582526 41.82231295 13.84375 47.46875 C12.93109375 48.72171875 12.93109375 48.72171875 12 50 C12.33 50.99 12.66 51.98 13 53 C13.99 53.495 13.99 53.495 15 54 C14.34 55.32 13.68 56.64 13 58 C8.6071262 57.46968911 6.12232996 55.93027533 2.6875 53.1875 C1.80449219 52.50042969 0.92148437 51.81335938 0.01171875 51.10546875 C-2 49 -2 49 -2 45 C-1.01 44.855625 -0.02 44.71125 1 44.5625 C6.57108833 42.96432921 9.5897674 38.42296834 13 34 C13.60714844 33.21367187 14.21429687 32.42734375 14.83984375 31.6171875 C17.24134644 28.28333671 18.84664474 25.73889354 19.6875 21.6875 C19.18310762 18.8333326 19.18310762 18.8333326 16.875 16.6875 C12.72551476 14.14902572 12.72551476 14.14902572 8 14 C4.89511435 16.64657613 2.51732357 19.80547435 0 23 C-0.76699219 23.84046875 -1.53398438 24.6809375 -2.32421875 25.546875 C-6.4331055 29.91106631 -6.4331055 29.91106631 -8.27734375 35.41015625 C-8.03279346 37.85043044 -8.03279346 37.85043044 -7 41 C-8.485 41.495 -8.485 41.495 -10 42 C-12.51835268 40.43152656 -14.82918936 38.84365137 -17.1875 37.0625 C-17.84169922 36.58103516 -18.49589844 36.09957031 -19.16992188 35.60351562 C-20.78676531 34.41153616 -22.39428928 33.20693447 -24 32 C-23.34 30.68 -22.68 29.36 -22 28 C-20.87851562 28.10054687 -20.87851562 28.10054687 -19.734375 28.203125 C-13.79533782 27.76193938 -10.09959741 21.27472471 -6.44921875 17.04296875 C-1.34733943 11.35943762 -1.34733943 11.35943762 -0.31640625 4.19140625 C-0.54199219 3.13824219 -0.76757812 2.08507812 -1 1 C-0.67 0.67 -0.34 0.34 0 0 Z " fill="#732F8B" transform="translate(776,122)"/>
<path d="M0 0 C6.01451433 3.5682866 9.37165749 7.78167227 13.1875 13.5625 C17.57889201 20.20177961 17.57889201 20.20177961 23 26 C23.66 25.34 24.32 24.68 25 24 C25.99 24 26.98 24 28 24 C28.495 26.475 28.495 26.475 29 29 C27.06613122 30.48413185 25.12821927 31.96237428 23.1875 33.4375 C22.64029297 33.85837891 22.09308594 34.27925781 21.52929688 34.71289062 C19.02320543 36.61144475 17.00579981 37.99806673 14 39 C13.34 38.01 12.68 37.02 12 36 C12.2784375 34.83210938 12.2784375 34.83210938 12.5625 33.640625 C13.43140065 28.39618896 8.90885048 24.10595433 6 20 C5.11828125 18.67355469 5.11828125 18.67355469 4.21875 17.3203125 C1.48500206 13.43093475 -0.10309798 11.34020421 -4.625 9.625 C-8.13707075 9.72939789 -8.13707075 9.72939789 -10.875 12.125 C-13.05305729 15.07178339 -13.72484708 16.41360516 -14 20 C-12.9980966 22.36490022 -12.9980966 22.36490022 -11.32421875 24.57421875 C-10.74349609 25.40630859 -10.16277344 26.23839844 -9.56445312 27.09570312 C-8.94505859 27.95099609 -8.32566406 28.80628906 -7.6875 29.6875 C-7.07970703 30.55439453 -6.47191406 31.42128906 -5.84570312 32.31445312 C-2.6689427 36.86130233 -2.6689427 36.86130233 1 41 C4.09926819 40.67801034 4.09926819 40.67801034 7 40 C7.495 41.98 7.495 41.98 8 44 C7.32453125 44.47050781 6.6490625 44.94101563 5.953125 45.42578125 C5.06109375 46.04839844 4.1690625 46.67101562 3.25 47.3125 C2.36828125 47.92738281 1.4865625 48.54226562 0.578125 49.17578125 C-1.97637629 50.93081989 -1.97637629 50.93081989 -4.140625 52.79296875 C-4.75421875 53.19128906 -5.3678125 53.58960938 -6 54 C-7.485 53.505 -7.485 53.505 -9 53 C-8.91363281 51.82566406 -8.82726562 50.65132812 -8.73828125 49.44140625 C-8.7436066 44.60279343 -10.42991231 41.79031521 -13.1875 37.9375 C-13.60241699 37.33405762 -14.01733398 36.73061523 -14.44482422 36.10888672 C-15.25987388 34.92669757 -16.08156795 33.74905479 -16.91064453 32.57666016 C-17.81529401 31.26733107 -18.64988455 29.90992699 -19.46484375 28.54296875 C-20.67971256 26.39721027 -20.67971256 26.39721027 -23 24 C-26.71158857 23.41439551 -26.71158857 23.41439551 -30 24 C-29.34580901 18.93001981 -27.1453591 14.58009223 -25 10 C-23.125 10.3125 -23.125 10.3125 -21 11 C-20.01 12.485 -20.01 12.485 -19 14 C-18.62488281 13.32453125 -18.24976563 12.6490625 -17.86328125 11.953125 C-9.78566208 -2.12675526 -9.78566208 -2.12675526 0 0 Z " fill="#73308B" transform="translate(256,101)"/>
<path d="M0 0 C0.66 0.33 1.32 0.66 2 1 C2.625 3.5625 2.625 3.5625 3 6 C3.6290625 5.6390625 4.258125 5.278125 4.90625 4.90625 C10.60570724 1.81618282 14.50942066 0.11992145 21 1 C24.53255383 2.33452034 25.68206538 3.44679377 27.5625 6.71875 C29.97591006 12.62116972 29.84163756 19.15168816 30.1875 25.4375 C30.26935547 26.74138672 30.35121094 28.04527344 30.43554688 29.38867188 C30.63501754 32.59193604 30.82279955 35.79543961 31 39 C32.65 39 34.3 39 36 39 C37 42 37 42 36 45 C30.06 45.33 24.12 45.66 18 46 C17.67 44.68 17.34 43.36 17 42 C17.99 41.34 18.98 40.68 20 40 C20.46646596 37.46826322 20.46646596 37.46826322 20.3984375 34.51171875 C20.40230469 33.41279297 20.40617187 32.31386719 20.41015625 31.18164062 C20.39855469 30.02857422 20.38695312 28.87550781 20.375 27.6875 C20.39240234 25.97530273 20.39240234 25.97530273 20.41015625 24.22851562 C20.40435547 22.57432617 20.40435547 22.57432617 20.3984375 20.88671875 C20.39505371 19.87826904 20.39166992 18.86981934 20.38818359 17.83081055 C19.93655008 14.53729447 18.98973854 12.64659412 17 10 C12.21121807 8.36746071 8.69395802 9.40405427 4 11 C3.83168463 20.70618661 4.35782702 30.32153574 5 40 C6.65 40.33 8.3 40.66 10 41 C10 42.32 10 43.64 10 45 C6.70039859 46.6498007 3.00872116 46.38258361 -0.625 46.5625 C-1.42679687 46.60568359 -2.22859375 46.64886719 -3.0546875 46.69335938 C-5.0362511 46.79951457 -7.01810271 46.90026855 -9 47 C-9.1875 44.625 -9.1875 44.625 -9 42 C-8.01 41.34 -7.02 40.68 -6 40 C-4.10921997 31.17635984 -5.37375004 21.93128796 -6 13 C-8.475 12.01 -8.475 12.01 -11 11 C-10.80859375 8.7109375 -10.80859375 8.7109375 -10 6 C-7.78515625 4.1640625 -7.78515625 4.1640625 -5.0625 2.625 C-4.16660156 2.10164063 -3.27070313 1.57828125 -2.34765625 1.0390625 C-1.57292969 0.69617188 -0.79820312 0.35328125 0 0 Z " fill="#73308B" transform="translate(469,24)"/>
<path d="M0 0 C0 2.31 0 4.62 0 7 C0.969375 6.67 1.93875 6.34 2.9375 6 C7.80647088 4.64969836 13.23777137 3.50066922 17.87109375 6.015625 C20.54938068 8.14797814 21.91173891 9.73521673 23 13 C23.50171477 20.76873961 21.92190356 27.56101606 20 35.0625 C19.57074219 36.79016602 19.57074219 36.79016602 19.1328125 38.55273438 C18.43117814 41.37096572 17.72006884 44.18643313 17 47 C18.65 47 20.3 47 22 47 C21.67 48.65 21.34 50.3 21 52 C14.7945858 51.51679152 9.00054754 50.66681876 3 49 C3 47.68 3 46.36 3 45 C3.60457031 44.83242187 4.20914063 44.66484375 4.83203125 44.4921875 C8.16060472 42.20116937 8.66290383 38.84780924 9.6875 35.125 C9.89955078 34.40441406 10.11160156 33.68382812 10.33007812 32.94140625 C12.78561223 24.61492111 12.78561223 24.61492111 13 16 C11.6469872 13.39685006 11.6469872 13.39685006 9 12 C5.52182314 11.51882929 2.20580406 11.39709797 -1 13 C-1.82918405 15.13416558 -1.82918405 15.13416558 -2.47265625 17.734375 C-2.73240234 18.70117188 -2.99214844 19.66796875 -3.25976562 20.6640625 C-3.52466797 21.68242188 -3.78957031 22.70078125 -4.0625 23.75 C-4.33126953 24.75289062 -4.60003906 25.75578125 -4.87695312 26.7890625 C-6.04362585 31.1764502 -7.14481164 35.53997953 -8 40 C-6.68 40.33 -5.36 40.66 -4 41 C-4.33 42.65 -4.66 44.3 -5 46 C-13.91 44.02 -13.91 44.02 -23 42 C-23 40.68 -23 39.36 -23 38 C-22.23042969 37.81179687 -21.46085938 37.62359375 -20.66796875 37.4296875 C-16.85253528 35.38510675 -16.56728393 33.20200559 -15.3125 29.125 C-15.00179565 28.12811157 -15.00179565 28.12811157 -14.68481445 27.11108398 C-12.89858204 21.16762095 -11.76823689 15.15736131 -11 9 C-11.99 8.34 -12.98 7.68 -14 7 C-13.8046875 5.109375 -13.8046875 5.109375 -13 3 C-10.8203125 1.953125 -10.8203125 1.953125 -8.125 1.25 C-7.24070312 1.00765625 -6.35640625 0.7653125 -5.4453125 0.515625 C-3 0 -3 0 0 0 Z " fill="#732F8B" transform="translate(602,35)"/>
<path d="M0 0 C3.82211339 2.84350465 5.87595985 6.11048567 6.59375 10.8359375 C6.69754454 21.76031287 6.69754454 21.76031287 2.5390625 26.453125 C-1.73322622 30.37135665 -6.05946172 31.90605201 -11.875 31.75 C-16.61989424 30.93409999 -20.55021495 29.5835833 -23.8125 25.9375 C-27.36289486 20.45052613 -28.34729108 16.33492177 -27.41015625 9.92578125 C-26.22543281 5.10905896 -23.72152713 2.40253133 -19.875 -0.5625 C-13.39934514 -4.20505586 -6.27112606 -4.23400867 0 0 Z " fill="#732F8B" transform="translate(646.875,440.25)"/>
<path d="M0 0 C1.32 0.33 2.64 0.66 4 1 C4.99 14.365 4.99 14.365 6 28 C4.35 28.33 2.7 28.66 1 29 C0.01 25.04 0.01 25.04 -1 21 C-14.26085932 20.54505311 -27.35394429 21.35511832 -40.5625 22.4375 C-41.39921234 22.50498444 -42.23592468 22.57246887 -43.09799194 22.64199829 C-45.50461991 22.83797124 -47.9105881 23.0404371 -50.31640625 23.24609375 C-51.04689178 23.30656891 -51.77737732 23.36704407 -52.52999878 23.42935181 C-55.53175087 23.69541467 -58.12818914 24.04272971 -61 25 C-61.33 27.64 -61.66 30.28 -62 33 C-63.65 32.67 -65.3 32.34 -67 32 C-67.3389231 28.64637391 -67.67011964 25.29202668 -68 21.9375 C-68.09539062 20.99455078 -68.19078125 20.05160156 -68.2890625 19.08007812 C-68.78225278 14.02487778 -69.11270932 9.07896392 -69 4 C-67.68 3.67 -66.36 3.34 -65 3 C-64.01 5.97 -63.02 8.94 -62 12 C-49.10402143 12.43253593 -36.40128857 11.68483228 -23.5625 10.5625 C-22.391996 10.46127335 -22.391996 10.46127335 -21.19784546 10.35800171 C-11.5402689 9.6009368 -11.5402689 9.6009368 -2 8 C-1.855625 6.865625 -1.71125 5.73125 -1.5625 4.5625 C-1 1 -1 1 0 0 Z " fill="#732F8B" transform="translate(70,558)"/>
<path d="M0 0 C0.99 0 1.98 0 3 0 C3.88136781 2.91969053 4.3148011 4.38042822 2.90429688 7.15649414 C2.34806641 7.85895264 1.79183594 8.56141113 1.21875 9.28515625 C0.62449219 10.06310547 0.03023437 10.84105469 -0.58203125 11.64257812 C-1.21496094 12.44115234 -1.84789062 13.23972656 -2.5 14.0625 C-3.75103404 15.64858695 -4.99120224 17.24332322 -6.21875 18.84765625 C-6.77498047 19.54898682 -7.33121094 20.25031738 -7.90429688 20.97290039 C-9.1977126 22.92865009 -9.1977126 22.92865009 -8.83789062 25.11889648 C-7.39482151 28.35865391 -5.07413305 29.40600509 -2 31 C2.33456796 31.44840358 5.31007775 31.33245085 9 29 C10.2572994 27.24441229 10.2572994 27.24441229 11.125 25.1875 C11.45242187 24.47980469 11.77984375 23.77210938 12.1171875 23.04296875 C13.1246327 20.71158007 14.10813934 18.3782951 15 16 C15.99 16.66 16.98 17.32 18 18 C18.90782787 24.22510538 16.97119987 29.53891613 14 35 C10.80592018 39.1746332 6.50047497 41.02306579 1.4296875 41.90234375 C-3.95858407 42.11891415 -8.68259089 40.68056386 -13.046875 37.515625 C-19.53108822 31.47477678 -22.57790332 24.48725685 -23.25 15.75 C-22.86173997 9.92609958 -21.63458668 5.03085012 -17.9375 0.4375 C-12.31790225 -2.31251592 -5.95580458 -1.44383141 0 0 Z " fill="#732F8B" transform="translate(221,133)"/>
<path d="M0 0 C3.219534 3.40891835 4.07384476 5.89438611 4.25 10.5625 C4.20875 11.449375 4.1675 12.33625 4.125 13.25 C5.115 13.25 6.105 13.25 7.125 13.25 C6.795 14.57 6.465 15.89 6.125 17.25 C0.11931656 18.42806959 -5.25845845 18.01422836 -11.3125 17.3125 C-12.23482422 17.21259766 -13.15714844 17.11269531 -14.10742188 17.00976562 C-16.36424805 16.76420423 -18.6198907 16.51078192 -20.875 16.25 C-22.09985812 18.69971624 -22.04222808 20.39234461 -22.0625 23.125 C-22.08376953 24.42050781 -22.08376953 24.42050781 -22.10546875 25.7421875 C-21.85498826 28.46775485 -21.42098753 29.99685729 -19.875 32.25 C-16.35230651 34.91718221 -12.34564591 34.47872098 -8.125 34.375 C-7.42761719 34.36597656 -6.73023438 34.35695312 -6.01171875 34.34765625 C-4.29933042 34.32419888 -2.58711996 34.28833104 -0.875 34.25 C-1.6953125 36.66796875 -1.6953125 36.66796875 -2.875 39.25 C-8.78785434 41.94934655 -15.48137358 41.97028337 -21.875 41.25 C-26.35370656 39.09062362 -29.05698188 36.32047061 -31.875 32.25 C-34.10228794 25.56813617 -33.80343041 18.3446699 -30.875 11.9375 C-26.77286892 4.77029344 -21.12166854 -0.15480408 -13.109375 -2.37890625 C-8.17626897 -3.19821582 -4.35215526 -2.64913799 0 0 Z " fill="#732F8B" transform="translate(665.875,55.75)"/>
<path d="M0 0 C3.74820524 4.24796594 3.31529048 8.64006186 3 14 C3.99 14.33 4.98 14.66 6 15 C5.505 16.485 5.505 16.485 5 18 C1.11294975 19.01414713 -1.61792505 18.89757024 -5.51953125 18.00390625 C-6.54111328 17.77509766 -7.56269531 17.54628906 -8.61523438 17.31054688 C-9.67033203 17.06369141 -10.72542969 16.81683594 -11.8125 16.5625 C-12.88693359 16.31951172 -13.96136719 16.07652344 -15.06835938 15.82617188 C-17.71442158 15.22639777 -20.35800658 14.61740685 -23 14 C-23.96593557 18.71540638 -24.80023121 23.19861275 -24 28 C-21.81840855 30.75569447 -20.12822506 32.43588747 -17 34 C-14.7927077 34.07092842 -12.58332548 34.08415025 -10.375 34.0625 C-8.59222656 34.04896484 -8.59222656 34.04896484 -6.7734375 34.03515625 C-5.85820313 34.02355469 -4.94296875 34.01195312 -4 34 C-4.8125 36.4375 -4.8125 36.4375 -6 39 C-9.59001609 40.19667203 -12.5904839 40.20538881 -16.375 40.25 C-17.68210937 40.27578125 -18.98921875 40.3015625 -20.3359375 40.328125 C-24.87141854 39.92196252 -27.3135765 38.63531976 -30.546875 35.5 C-35.1396893 29.77389386 -35.74691728 25.15795729 -35 18 C-32.71678649 10.23211057 -28.50015478 4.25142103 -21.4375 0.1875 C-14.26909813 -3.65138419 -7.11207506 -4.68750402 0 0 Z " fill="#732F8B" transform="translate(706,73)"/>
<path d="M0 0 C3.46482816 3.00285108 5.57002347 5.80562074 7.125 10.125 C7 13 7 13 5.6875 15.75 C1.76879612 19.03077534 -1.93592856 19.82100484 -7 20 C-15.06575719 18.83066453 -21.38245544 14.06444242 -26.5625 8 C-28 5 -28 5 -28.0625 1.875 C-26.72814555 -1.73560615 -25.23412905 -2.96926781 -22 -5 C-14.74585679 -8.2518573 -6.07670337 -3.94630653 0 0 Z " fill="#FEFEFE" transform="translate(145,241)"/>
<path d="M0 0 C1.39456452 0.00667256 2.78911118 0.01863093 4.18359375 0.03515625 C4.89451172 0.03966797 5.60542969 0.04417969 6.33789062 0.04882812 C8.09899388 0.06064761 9.86005411 0.07858362 11.62109375 0.09765625 C11.07385692 3.4722834 10.56619375 5.18000625 8.62109375 8.09765625 C13.24109375 7.76765625 17.86109375 7.43765625 22.62109375 7.09765625 C24.93676759 10.571167 25.21696952 12.01165097 24.62109375 16.09765625 C21.96880815 18.3710439 20.29208339 19.05292361 16.80859375 19.28515625 C16.08671875 19.22328125 15.36484375 19.16140625 14.62109375 19.09765625 C13.96109375 17.44765625 13.30109375 15.79765625 12.62109375 14.09765625 C9.37752799 13.34352272 9.37752799 13.34352272 5.62109375 14.09765625 C2.99452206 16.71102908 1.37755988 19.85834433 -0.37890625 23.09765625 C-1.01570312 24.25007813 -1.6525 25.4025 -2.30859375 26.58984375 C-4.03419425 29.74069746 -5.71546495 32.91349494 -7.37890625 36.09765625 C-5.39890625 36.75765625 -3.41890625 37.41765625 -1.37890625 38.09765625 C-1.70890625 39.74765625 -2.03890625 41.39765625 -2.37890625 43.09765625 C-7.47538342 42.60969567 -11.04595179 40.79127122 -15.25390625 38.03515625 C-15.846875 37.65810547 -16.43984375 37.28105469 -17.05078125 36.89257812 C-18.49917947 35.96980829 -19.93986656 35.03495362 -21.37890625 34.09765625 C-20.69140625 32.22265625 -20.69140625 32.22265625 -19.37890625 30.09765625 C-18.19143799 29.66283936 -18.19143799 29.66283936 -16.97998047 29.21923828 C-12.46315601 27.27158561 -10.86433138 23.10652248 -8.50390625 18.97265625 C-7.9934375 18.1425 -7.48296875 17.31234375 -6.95703125 16.45703125 C-3.64057851 10.73839112 -2.9593225 7.55164012 -4.37890625 1.09765625 C-3.37890625 0.09765625 -3.37890625 0.09765625 0 0 Z " fill="#732F8B" transform="translate(723.37890625,87.90234375)"/>
<path d="M0 0 C0.37809814 0.81678223 0.75619629 1.63356445 1.14575195 2.47509766 C2.55957971 5.528168 3.9742221 8.58085816 5.3894043 11.63330078 C5.99975337 12.95020841 6.60978484 14.26726328 7.21948242 15.58447266 C8.09989702 17.48639855 8.98148246 19.38777804 9.86328125 21.2890625 C10.39219971 22.43068848 10.92111816 23.57231445 11.46606445 24.74853516 C12.93234417 27.85659075 14.45018812 30.93287558 16 34 C18.31 34 20.62 34 23 34 C23.495 36.475 23.495 36.475 24 39 C21.59087645 40.36936501 19.17425815 41.72041993 16.75 43.0625 C16.06808594 43.45244141 15.38617188 43.84238281 14.68359375 44.24414062 C14.01972656 44.60830078 13.35585938 44.97246094 12.671875 45.34765625 C12.0644043 45.68804932 11.45693359 46.02844238 10.83105469 46.37915039 C8.53906176 47.15628879 7.25542675 46.76849965 5 46 C6 42 6 42 6.67944336 40.19384766 C7.13353527 37.08610211 6.08870143 35.43626481 4.69140625 32.6484375 C4.19189453 31.63265625 3.69238281 30.616875 3.17773438 29.5703125 C2.64470703 28.51585938 2.11167969 27.46140625 1.5625 26.375 C0.51893249 24.28023841 -0.52159479 22.18395857 -1.55859375 20.0859375 C-2.02579834 19.1582959 -2.49300293 18.2306543 -2.97436523 17.27490234 C-4 15 -4 15 -4 13 C-6.31 13.33 -8.62 13.66 -11 14 C-11.35474513 10.72587694 -11.21640385 9.32332072 -9.35546875 6.54296875 C-8.64003906 5.76566406 -7.92460937 4.98835938 -7.1875 4.1875 C-6.47980469 3.39730469 -5.77210938 2.60710937 -5.04296875 1.79296875 C-3 0 -3 0 0 0 Z " fill="#732F8B" transform="translate(303,69)"/>
<path d="M0 0 C1.28132812 0.28746094 2.56265625 0.57492188 3.8828125 0.87109375 C4.87023437 1.09925781 5.85765625 1.32742187 6.875 1.5625 C6.2628386 4.78720684 5.17860492 6.81880834 3.21484375 9.43359375 C2.67174561 10.16723145 2.12864746 10.90086914 1.5690918 11.65673828 C0.9894165 12.43001465 0.40974121 13.20329102 -0.1875 14 C-5.57964766 21.31171365 -10.5387115 28.72008522 -15.125 36.5625 C-13.805 37.2225 -12.485 37.8825 -11.125 38.5625 C-11.455 39.8825 -11.785 41.2025 -12.125 42.5625 C-18.31656475 42.24498386 -22.26668001 39.05123645 -27.125 35.5625 C-28.115 34.9025 -29.105 34.2425 -30.125 33.5625 C-29.795 32.2425 -29.465 30.9225 -29.125 29.5625 C-28.238125 29.68238281 -27.35125 29.80226562 -26.4375 29.92578125 C-22.93772425 29.88238234 -22.93772425 29.88238234 -20.5625 27.10546875 C-19.72829786 26.00307046 -18.91666791 24.8833301 -18.125 23.75 C-17.48425537 22.87661987 -17.48425537 22.87661987 -16.83056641 21.9855957 C-13.09614593 16.78635056 -9.95508057 11.30319188 -7.125 5.5625 C-7.785 4.5725 -8.445 3.5825 -9.125 2.5625 C-9.125 1.5725 -9.125 0.5825 -9.125 -0.4375 C-5.95954798 -2.02022601 -3.38081122 -0.76836619 0 0 Z " fill="#73308B" transform="translate(761.125,106.4375)"/>
<path d="M0 0 C-0.6772602 8.62318014 -2.10703561 17.10693769 -3.5625 25.625 C-3.79913324 27.02468803 -4.03546353 28.42442732 -4.27148438 29.82421875 C-4.84416995 33.21674297 -5.42093444 36.60855821 -6 40 C-4.35 40.33 -2.7 40.66 -1 41 C-1 42.65 -1 44.3 -1 46 C-4.04719867 47.01573289 -4.98833004 47.0097124 -8.01171875 46.44140625 C-9.14770508 46.23354492 -9.14770508 46.23354492 -10.30664062 46.02148438 C-11.09232422 45.87001953 -11.87800781 45.71855469 -12.6875 45.5625 C-13.48478516 45.41490234 -14.28207031 45.26730469 -15.10351562 45.11523438 C-17.07025852 44.75015036 -19.03530467 44.37594711 -21 44 C-21 42.68 -21 41.36 -21 40 C-20.37351562 39.91363281 -19.74703125 39.82726562 -19.1015625 39.73828125 C-16.88879926 39.21355147 -16.88879926 39.21355147 -16.0234375 37.35546875 C-13.21886894 27.97874857 -11.67344978 18.79650658 -12 9 C-12.99 8.67 -13.98 8.34 -15 8 C-14.67 6.35 -14.34 4.7 -14 3 C-12.0424015 2.49713066 -10.08389623 1.9977901 -8.125 1.5 C-7.03445313 1.2215625 -5.94390625 0.943125 -4.8203125 0.65625 C-2 0 -2 0 0 0 Z " fill="#732F8B" transform="translate(575,29)"/>
<path d="M0 0 C5.59507085 3.04079938 10.71631778 7.49126859 12.9375 13.5625 C13 16 13 16 12.0625 18.25 C8.97897975 20.86632021 5.91518561 21.28664752 2 21 C-3.9388611 19.24235912 -7.45476645 15.9418407 -11 11 C-12.41441874 8.17116253 -12.31900332 6.12623255 -12 3 C-8.96677685 -0.79152894 -4.50661796 -1.01235621 0 0 Z " fill="#FEFEFE" transform="translate(795,198)"/>
<path d="M0 0 C1.75 2.375 1.75 2.375 1.875 5.875 C0.57048176 9.9335012 -0.70205197 11.12508174 -4.25 13.375 C-8.43433041 15.46716521 -13.69336225 14.80274174 -18.25 14.375 C-21.78347073 13.15975025 -23.70061417 11.39136379 -25.5 8.0625 C-25.15546691 4.35876928 -23.45805444 2.59760163 -21.0859375 -0.171875 C-15.51468928 -4.58145869 -5.90564148 -2.95282074 0 0 Z " fill="#FEFEFE" transform="translate(540.25,78.625)"/>
<path d="M0 0 C3.375 1.0625 3.375 1.0625 5.3125 3.25 C6.61386841 6.69479872 7.00907481 8.39895667 6.375 12.0625 C3.50778979 17.71809677 0.18103282 22.34478251 -5.625 25.0625 C-8.3125 25.125 -8.3125 25.125 -10.625 24.0625 C-12.97935471 21.30222207 -13.58362045 19.33663955 -14.125 15.75 C-13.31097503 9.74656584 -10.3002435 5.86999956 -6.25 1.5 C-3.625 0.0625 -3.625 0.0625 0 0 Z " fill="#FEFEFE" transform="translate(826.625,163.9375)"/>
<path d="M0 0 C3.81903145 0.51783477 4.24977729 0.59521938 6.5625 3.3125 C10.08744262 8.59991393 10.27065215 13.30277287 9.6875 19.5 C8.52317931 21.98050929 7.59324048 23.59425952 5.6875 25.5 C2.75129255 25.97798726 0.6400874 26.06706968 -1.97265625 24.51171875 C-6.03857927 20.96527484 -7.46597581 17.24748054 -8.26953125 11.97265625 C-8.33722274 8.07731896 -7.26837358 5.85292614 -5.3125 2.5 C-3.3125 0.5 -3.3125 0.5 0 0 Z " fill="#FEFEFE" transform="translate(528.3125,29.5)"/>
<path d="M0 0 C2.4375 1.0625 2.4375 1.0625 5 3 C5.9375 6.5625 5.9375 6.5625 6 10 C5.34 10.66 4.68 11.32 4 12 C0.9609375 11.5390625 0.9609375 11.5390625 -2.625 10.625 C-4.40777344 10.18027344 -4.40777344 10.18027344 -6.2265625 9.7265625 C-7.59941406 9.36691406 -7.59941406 9.36691406 -9 9 C-6.46636932 4.77728219 -4.43379675 2.21689838 0 0 Z " fill="#FEFEFE" transform="translate(695,74)"/>
<path d="M0 0 C2.875 0.75 2.875 0.75 4.875 1.75 C4.24110765 5.24844386 2.82322306 7.59086876 0.8125 10.5 C0.26464844 11.29921875 -0.28320312 12.0984375 -0.84765625 12.921875 C-1.26917969 13.52515625 -1.69070312 14.1284375 -2.125 14.75 C-5.77275386 10.86690718 -6.71025633 8.03798182 -7.125 2.75 C-4.56024472 0.28388916 -3.63199048 -0.29055924 0 0 Z " fill="#FEFEFE" transform="translate(210.125,139.25)"/>
<path d="M0 0 C2.375 0.8125 2.375 0.8125 4.375 2.8125 C4.22862273 6.25236596 3.95959664 8.16526801 1.625 10.75 C-0.625 11.8125 -0.625 11.8125 -3.25 11.6875 C-5.625 10.8125 -5.625 10.8125 -7.625 7.8125 C-7.46777479 4.66799576 -7.03491827 3.25169814 -4.875 0.9375 C-2.625 -0.1875 -2.625 -0.1875 0 0 Z " fill="#73308B" transform="translate(777.625,86.1875)"/>
<path d="M0 0 C2.4375 0.5 2.4375 0.5 4.1875 2.25 C5.38534269 4.40611685 6.11236142 6.06146063 6.4375 8.5 C6.1075 9.16 5.7775 9.82 5.4375 10.5 C-3.97252278 10.68451025 -3.97252278 10.68451025 -8.5625 9.5 C-6.99090396 4.78521189 -5.18770794 1.0122357 0 0 Z " fill="#FEFEFE" transform="translate(655.5625,57.5)"/>
<path d="M0 0 C3.375 -0.1875 3.375 -0.1875 7 0 C9.31282587 3.46923881 9.42478586 4.92205575 9 9 C7.8125 10.9375 7.8125 10.9375 6 12 C2.65807308 11.75546876 1.39456443 11.39456443 -1 9 C-1.33870968 2.67741935 -1.33870968 2.67741935 0 0 Z " fill="#732F8B" transform="translate(287,48)"/>
<path d="M0 0 C2 2 2 2 2.3125 5.4375 C2 9 2 9 0.8125 10.9375 C-1.62103204 12.36405327 -3.22542896 12.35571424 -6 12 C-8 10 -8 10 -8.3125 6.5625 C-8 3 -8 3 -6.8125 1.0625 C-4.37896796 -0.36405327 -2.77457104 -0.35571424 0 0 Z " fill="#732F8B" transform="translate(578,5)"/>
</svg>
